<?xml version="1.0" encoding="UTF-8"?>
<svg version="1.1" xmlns="http://www.w3.org/2000/svg" width="467" height="411">
<path d="M0 0 C154.11 0 308.22 0 467 0 C467 135.63 467 271.26 467 411 C312.89 411 158.78 411 0 411 C0 275.37 0 139.74 0 0 Z " fill="#FCFCFB" transform="translate(0,0)"/>
<path d="M0 0 C2.8422444 1.57616788 5.40055444 3.49309024 8 5.4375 C9.52693393 6.54874043 11.05428141 7.65941282 12.58203125 8.76953125 C13.33307129 9.3207666 14.08411133 9.87200195 14.85791016 10.43994141 C17.76498591 12.55713015 20.72064087 14.59235481 23.6875 16.625 C28.77394157 20.13223465 33.80218801 23.71280337 38.81420898 27.32495117 C43.67058031 30.80763782 48.6387018 34.08547883 53.671875 37.30859375 C56 39 56 39 58 42 C58.125 44.6875 58.125 44.6875 58 47 C55.89748139 47.67184618 53.79292237 48.33730968 51.6875 49 C50.51574219 49.37125 49.34398437 49.7425 48.13671875 50.125 C45 51 45 51 42 51 C42 49.35 42 47.7 42 46 C41.48953125 45.77183594 40.9790625 45.54367188 40.453125 45.30859375 C37.03951525 43.4876395 33.919128 41.27132098 30.75 39.0625 C29.31780204 38.07017724 27.88550752 37.07799384 26.453125 36.0859375 C25.71900391 35.57643555 24.98488281 35.06693359 24.22851562 34.54199219 C22.04814101 33.03331054 19.86147056 31.53432316 17.671875 30.0390625 C16.62882202 29.32580811 16.62882202 29.32580811 15.56469727 28.59814453 C14.19913473 27.66516353 12.83245173 26.7338202 11.46459961 25.80419922 C7.94791295 23.39936411 4.60072665 20.90198354 1.3125 18.1875 C0.219375 17.465625 -0.87375 16.74375 -2 16 C-6.8438422 17.149242 -10.77962899 20.49984091 -14.75 23.375 C-16.25899126 24.45459947 -17.76810975 25.53402114 -19.27734375 26.61328125 C-20.43919189 27.44786865 -20.43919189 27.44786865 -21.62451172 28.29931641 C-25.50417111 31.07688139 -29.40968599 33.8176171 -33.3125 36.5625 C-34.7049307 37.54225339 -36.09689037 38.52267671 -37.48828125 39.50390625 C-38.10525879 39.93848145 -38.72223633 40.37305664 -39.35791016 40.82080078 C-40.71425264 41.7948023 -42.0395 42.81194776 -43.35546875 43.83984375 C-45 45 -45 45 -47 45 C-46.88087297 50.65604407 -46.75657561 56.31194341 -46.62768555 61.96777344 C-46.58463064 63.88799021 -46.54293777 65.80823806 -46.50268555 67.72851562 C-46.44426186 70.50400116 -46.38078356 73.27933441 -46.31640625 76.0546875 C-46.29969376 76.8998996 -46.28298126 77.74511169 -46.26576233 78.61593628 C-46.12391279 84.44841975 -45.65487495 90.20319922 -45 96 C-42.89330541 93.89330541 -43.74107511 89.28743711 -43.68359375 86.37109375 C-43.6524221 85.07474754 -43.6524221 85.07474754 -43.62062073 83.75221252 C-43.55502886 80.98072555 -43.49619582 78.20914079 -43.4375 75.4375 C-43.39432392 73.56314077 -43.35070994 71.68879157 -43.30664062 69.81445312 C-43.19933773 65.20973664 -43.09809785 60.60492142 -43 56 C-38.61470597 57.66969883 -34.87465439 59.87929367 -31 62.5 C-30.34644531 62.93852295 -29.69289063 63.3770459 -29.01953125 63.82885742 C-23.45197413 67.60674646 -18.11775896 71.64630473 -12.828125 75.80078125 C-10.50729056 77.60551853 -8.16523034 79.32602938 -5.75 81 C-3 83 -3 83 -2 85 C2.05205636 84.44402017 4.12943087 82.36302969 7.125 79.6875 C28.36197552 61.34357041 51.53241247 48.52904817 80 50 C97.39146594 51.77283037 110.88285234 60.87812654 122.375 73.625 C133.38135476 87.16652637 134.98748052 103.18357248 134 120 C132.23623047 132.76490826 124.45072998 143.83858103 114.65234375 151.94140625 C99.37526127 163.15105631 82.59221429 165.89106753 64 164 C47.27666867 161.06124875 32.44665564 153.12091791 19 143 C17.84532775 142.15977729 16.69035992 141.31996068 15.53515625 140.48046875 C14.33498753 139.59242826 13.13576115 138.70311275 11.9375 137.8125 C11.07777588 137.18819092 11.07777588 137.18819092 10.20068359 136.55126953 C7.83616991 134.76157851 6.19514715 133.5154335 5.12890625 130.69921875 C5.08636719 130.13847656 5.04382813 129.57773438 5 129 C5.67804688 128.45472656 6.35609375 127.90945312 7.0546875 127.34765625 C12.88745692 122.62165887 18.43873159 117.80954438 23.80859375 112.5546875 C26 111 26 111 27.90234375 110.96484375 C30.95784786 112.47268097 33.49531155 114.55141003 36.125 116.6875 C50.17897754 127.75495806 62.89178236 133.78913528 81 132 C86.36531182 130.56258838 90.06425113 127.74236356 93 123 C95.92815343 115.65839791 96.27462394 107.17916816 94.3828125 99.4921875 C91.46025995 92.8970468 85.53732561 87.9002032 79 85.0625 C78.01 84.711875 77.02 84.36125 76 84 C78.56473023 81.43526977 80.36049835 81.68948804 83.86547852 81.61987305 C96.76008119 81.6475977 108.01892327 83.74212096 119 91 C119.886875 91.5775 120.77375 92.155 121.6875 92.75 C125.09804993 96.0683729 127.49621033 99.97328672 130 104 C126.55955749 94.79363068 120.63573914 88.65363842 112 84 C97.35024778 77.57533506 79.55339497 77.85172124 64.69921875 83.4609375 C47.58840687 90.43781395 33.90768764 101.03753792 19.71484375 112.60546875 C18.16002574 113.86986517 16.59613864 115.12308909 15.03125 116.375 C10.29294535 120.18742903 5.78509708 124.12380535 1.375 128.3125 C-13.32306867 142.0615252 -31.22351318 152.86043765 -50 160 C-50.73734375 160.30679688 -51.4746875 160.61359375 -52.234375 160.9296875 C-66.72124956 166.82550854 -87.90774315 166.43125618 -102.36083984 160.75854492 C-119.10399451 153.40510432 -128.43812266 140.43195877 -135 124 C-139.76797228 110.60729565 -137.07931547 96.24715293 -131.4921875 83.58203125 C-123.72719374 68.1784506 -111.87050339 58.15014973 -95.9375 51.9375 C-86.48607182 49.02014585 -76.78952088 49.54029847 -67 50 C-67 50.66 -67 51.32 -67 52 C-66.34 52 -65.68 52 -65 52 C-65.01160156 51.16855469 -65.02320313 50.33710938 -65.03515625 49.48046875 C-65.04417969 48.39378906 -65.05320312 47.30710938 -65.0625 46.1875 C-65.07410156 45.10855469 -65.08570313 44.02960938 -65.09765625 42.91796875 C-65 40 -65 40 -64 37 C-61.85546875 36.15625 -61.85546875 36.15625 -59.1875 35.5 C-55.40353358 34.56099504 -53.06213604 33.39125591 -50 31 C-49.34 31 -48.68 31 -48 31 C-48 30.34 -48 29.68 -48 29 C-46.98679687 28.443125 -45.97359375 27.88625 -44.9296875 27.3125 C-41.11558175 25.13082385 -37.63233599 22.63876159 -34.125 20 C-28.39814679 15.74920762 -22.63197503 11.56072675 -16.8125 7.4375 C-15.73476318 6.66889648 -15.73476318 6.66889648 -14.63525391 5.88476562 C-13.95769043 5.40587891 -13.28012695 4.92699219 -12.58203125 4.43359375 C-11.98624268 4.01134521 -11.3904541 3.58909668 -10.77661133 3.15405273 C-7.13678215 0.78968933 -4.39544683 -0.74298036 0 0 Z " fill="#8ABB30" transform="translate(240,79)"/>
<path d="M0 0 C2.8422444 1.57616788 5.40055444 3.49309024 8 5.4375 C9.52693393 6.54874043 11.05428141 7.65941282 12.58203125 8.76953125 C13.33307129 9.3207666 14.08411133 9.87200195 14.85791016 10.43994141 C17.76498591 12.55713015 20.72064087 14.59235481 23.6875 16.625 C28.77394157 20.13223465 33.80218801 23.71280337 38.81420898 27.32495117 C43.67058031 30.80763782 48.6387018 34.08547883 53.671875 37.30859375 C56 39 56 39 58 42 C58.125 44.6875 58.125 44.6875 58 47 C55.89748139 47.67184618 53.79292237 48.33730968 51.6875 49 C50.51574219 49.37125 49.34398437 49.7425 48.13671875 50.125 C45 51 45 51 42 51 C42 49.35 42 47.7 42 46 C41.48953125 45.77183594 40.9790625 45.54367188 40.453125 45.30859375 C37.03951525 43.4876395 33.919128 41.27132098 30.75 39.0625 C29.31780204 38.07017724 27.88550752 37.07799384 26.453125 36.0859375 C25.71900391 35.57643555 24.98488281 35.06693359 24.22851562 34.54199219 C22.04814101 33.03331054 19.86147056 31.53432316 17.671875 30.0390625 C16.62882202 29.32580811 16.62882202 29.32580811 15.56469727 28.59814453 C14.19913473 27.66516353 12.83245173 26.7338202 11.46459961 25.80419922 C7.94791295 23.39936411 4.60072665 20.90198354 1.3125 18.1875 C0.219375 17.465625 -0.87375 16.74375 -2 16 C-6.8438422 17.149242 -10.77962899 20.49984091 -14.75 23.375 C-16.25899126 24.45459947 -17.76810975 25.53402114 -19.27734375 26.61328125 C-20.43919189 27.44786865 -20.43919189 27.44786865 -21.62451172 28.29931641 C-25.50417111 31.07688139 -29.40968599 33.8176171 -33.3125 36.5625 C-34.7049307 37.54225339 -36.09689037 38.52267671 -37.48828125 39.50390625 C-38.10525879 39.93848145 -38.72223633 40.37305664 -39.35791016 40.82080078 C-40.71425264 41.7948023 -42.0395 42.81194776 -43.35546875 43.83984375 C-45 45 -45 45 -47 45 C-46.88087297 50.65604407 -46.75657561 56.31194341 -46.62768555 61.96777344 C-46.58463064 63.88799021 -46.54293777 65.80823806 -46.50268555 67.72851562 C-46.44426186 70.50400116 -46.38078356 73.27933441 -46.31640625 76.0546875 C-46.29969376 76.8998996 -46.28298126 77.74511169 -46.26576233 78.61593628 C-46.12391279 84.44841975 -45.65487495 90.20319922 -45 96 C-42.89330541 93.89330541 -43.74107511 89.28743711 -43.68359375 86.37109375 C-43.6524221 85.07474754 -43.6524221 85.07474754 -43.62062073 83.75221252 C-43.55502886 80.98072555 -43.49619582 78.20914079 -43.4375 75.4375 C-43.39432392 73.56314077 -43.35070994 71.68879157 -43.30664062 69.81445312 C-43.19933773 65.20973664 -43.09809785 60.60492142 -43 56 C-38.61470597 57.66969883 -34.87465439 59.87929367 -31 62.5 C-30.34644531 62.93852295 -29.69289063 63.3770459 -29.01953125 63.82885742 C-23.44889788 67.60883386 -18.11166672 71.65027048 -12.8203125 75.80859375 C-10.54489048 77.57661557 -8.25171599 79.2490876 -5.875 80.875 C-3.26598974 82.80339889 -1.84041053 84.39728925 0 87 C-14.32283605 100.57004522 -28.50744969 113.61695214 -45.6484375 123.59375 C-47.96077174 124.93765827 -47.96077174 124.93765827 -49.9140625 126.34375 C-58.36432978 132.2409578 -69.71946612 135.4686477 -80 134 C-87.36480009 132.28418636 -92.68428191 128.36999166 -96.875 122.125 C-100.51874615 115.03862356 -100.35607341 106.55210547 -98.11328125 99.0234375 C-94.41408641 90.88766678 -88.87827004 86.80062816 -81 83 C-97.9181556 82.41287768 -111.48942191 82.53647919 -125 94 C-128.99748627 97.88761879 -131.74522992 101.86413481 -134 107 C-134.33 107 -134.66 107 -135 107 C-135.33 109.64 -135.66 112.28 -136 115 C-136.33 115 -136.66 115 -137 115 C-137.95119103 97.61434182 -133.18228149 82.29390038 -121.9375 68.75 C-111.59322292 57.98565076 -97.44910368 50.21933652 -82.3828125 49.703125 C-77.24920712 49.64169871 -72.12791375 49.7592007 -67 50 C-67 50.66 -67 51.32 -67 52 C-66.34 52 -65.68 52 -65 52 C-65.01160156 51.16855469 -65.02320313 50.33710938 -65.03515625 49.48046875 C-65.04417969 48.39378906 -65.05320312 47.30710938 -65.0625 46.1875 C-65.07410156 45.10855469 -65.08570313 44.02960938 -65.09765625 42.91796875 C-65 40 -65 40 -64 37 C-61.85546875 36.15625 -61.85546875 36.15625 -59.1875 35.5 C-55.40353358 34.56099504 -53.06213604 33.39125591 -50 31 C-49.34 31 -48.68 31 -48 31 C-48 30.34 -48 29.68 -48 29 C-46.98679687 28.443125 -45.97359375 27.88625 -44.9296875 27.3125 C-41.11558175 25.13082385 -37.63233599 22.63876159 -34.125 20 C-28.39814679 15.74920762 -22.63197503 11.56072675 -16.8125 7.4375 C-15.73476318 6.66889648 -15.73476318 6.66889648 -14.63525391 5.88476562 C-13.95769043 5.40587891 -13.28012695 4.92699219 -12.58203125 4.43359375 C-11.98624268 4.01134521 -11.3904541 3.58909668 -10.77661133 3.15405273 C-7.13678215 0.78968933 -4.39544683 -0.74298036 0 0 Z " fill="#FAFCF8" transform="translate(240,79)"/>
<path d="M0 0 C2.8422444 1.57616788 5.40055444 3.49309024 8 5.4375 C9.52693393 6.54874043 11.05428141 7.65941282 12.58203125 8.76953125 C13.33307129 9.3207666 14.08411133 9.87200195 14.85791016 10.43994141 C17.76498591 12.55713015 20.72064087 14.59235481 23.6875 16.625 C28.77394157 20.13223465 33.80218801 23.71280337 38.81420898 27.32495117 C43.67058031 30.80763782 48.6387018 34.08547883 53.671875 37.30859375 C56 39 56 39 58 42 C58.125 44.6875 58.125 44.6875 58 47 C55.89748139 47.67184618 53.79292237 48.33730968 51.6875 49 C50.51574219 49.37125 49.34398437 49.7425 48.13671875 50.125 C45 51 45 51 42 51 C42 49.35 42 47.7 42 46 C41.48953125 45.77183594 40.9790625 45.54367188 40.453125 45.30859375 C37.03951525 43.4876395 33.919128 41.27132098 30.75 39.0625 C29.31780204 38.07017724 27.88550752 37.07799384 26.453125 36.0859375 C25.71900391 35.57643555 24.98488281 35.06693359 24.22851562 34.54199219 C22.04814101 33.03331054 19.86147056 31.53432316 17.671875 30.0390625 C16.97650635 29.56355957 16.2811377 29.08805664 15.56469727 28.59814453 C14.19913473 27.66516353 12.83245173 26.7338202 11.46459961 25.80419922 C7.94791295 23.39936411 4.60072665 20.90198354 1.3125 18.1875 C0.219375 17.465625 -0.87375 16.74375 -2 16 C-6.84393407 17.14926379 -10.7794768 20.4999349 -14.75 23.375 C-16.26163343 24.4558485 -17.77335484 25.53657397 -19.28515625 26.6171875 C-20.44748779 27.4520166 -20.44748779 27.4520166 -21.63330078 28.30371094 C-25.47142074 31.05461433 -29.32956101 33.77699899 -33.1875 36.5 C-33.88133789 36.99161621 -34.57517578 37.48323242 -35.29003906 37.98974609 C-35.95100586 38.45719238 -36.61197266 38.92463867 -37.29296875 39.40625 C-37.8655542 39.81166016 -38.43813965 40.21707031 -39.02807617 40.63476562 C-41 42 -41 42 -44.07493591 43.63238525 C-47.29639948 45.74296341 -47.29639948 45.74296341 -47.75949097 49.29034424 C-47.7661528 51.24892365 -47.7661528 51.24892365 -47.77294922 53.24707031 C-47.78357895 53.96941864 -47.79420868 54.69176697 -47.80516052 55.43600464 C-47.83320785 57.81742067 -47.81915585 60.19661947 -47.8046875 62.578125 C-47.81593772 64.23152604 -47.82981841 65.8849111 -47.84622192 67.53826904 C-47.88228562 71.88512426 -47.88263037 76.23127654 -47.87554932 80.57824707 C-47.87463694 85.0158346 -47.90748722 89.45315793 -47.9375 93.890625 C-47.99138623 102.59384679 -48.00754127 111.29661571 -48 120 C-49.43294498 120.84114171 -50.87154405 121.67265687 -52.3125 122.5 C-53.51326172 123.19609375 -53.51326172 123.19609375 -54.73828125 123.90625 C-57 125 -57 125 -60 125 C-60 125.66 -60 126.32 -60 127 C-61.32 127 -62.64 127 -64 127 C-64.1855722 116.03856368 -64.3276138 105.07750253 -64.41449738 94.1148138 C-64.45620352 89.02397517 -64.51274663 83.93421314 -64.60351562 78.84399414 C-64.69060726 73.92909271 -64.73830854 69.01522493 -64.75901794 64.09961128 C-64.77377054 62.22682995 -64.80258099 60.3541036 -64.84584045 58.48176384 C-65.17112338 43.81624537 -65.17112338 43.81624537 -62.28442383 39.33938599 C-60.26275388 37.53722642 -58.38317656 36.26766181 -56 35 C-54.87078701 34.19336547 -53.74527994 33.38149579 -52.625 32.5625 C-50 31 -50 31 -48 31 C-48 30.34 -48 29.68 -48 29 C-46.98679688 28.443125 -45.97359375 27.88625 -44.9296875 27.3125 C-41.11558175 25.13082385 -37.63233599 22.63876159 -34.125 20 C-28.39814679 15.74920762 -22.63197503 11.56072675 -16.8125 7.4375 C-15.73476318 6.66889648 -15.73476318 6.66889648 -14.63525391 5.88476562 C-13.95769043 5.40587891 -13.28012695 4.92699219 -12.58203125 4.43359375 C-11.68834839 3.80022095 -11.68834839 3.80022095 -10.77661133 3.15405273 C-7.13678215 0.78968933 -4.39544683 -0.74298036 0 0 Z " fill="#8CBB33" transform="translate(240,79)"/>
<path d="M0 0 C0 10.23 0 20.46 0 31 C-7.35174693 31 -7.35174693 31 -11 30 C-26.67791821 28.76625606 -41.41396104 28.83388946 -54.14453125 39.17578125 C-57.82187116 42.79118702 -60.92924543 46.86754837 -64 51 C-64.66 50.67 -65.32 50.34 -66 50 C-65.12860969 36.49345017 -59.17388881 24.57320707 -49.3125 15.25 C-33.94874348 2.2766769 -19.52516203 -0.56187517 0 0 Z " fill="#8ABA30" transform="translate(171,129)"/>
<path d="M0 0 C4.14478643 1.59333873 7.78427237 3.58602673 11.5 6 C12.40878906 6.5873291 12.40878906 6.5873291 13.3359375 7.18652344 C22.00363634 12.87357688 30.06475701 19.34006392 38 26 C36.86913662 29.39259014 35.79067537 30.33037102 33.125 32.625 C32.42632812 33.23601562 31.72765625 33.84703125 31.0078125 34.4765625 C29 36 29 36 26 37 C26 37.66 26 38.32 26 39 C23.953125 40.98046875 23.953125 40.98046875 21.25 43.1875 C19.92742187 44.29158203 19.92742187 44.29158203 18.578125 45.41796875 C16 47 16 47 14.02734375 46.95703125 C11.30415362 45.6715176 8.83573716 44.14397828 6.3125 42.5 C5.33925781 41.8709375 4.36601562 41.241875 3.36328125 40.59375 C1 39 1 39 0 38 C-0.08861992 35.1883662 -0.11522355 32.40141745 -0.09765625 29.58984375 C-0.0962413 28.74780899 -0.09482635 27.90577423 -0.09336853 27.03822327 C-0.08775263 24.33794665 -0.07519748 21.63775172 -0.0625 18.9375 C-0.05748705 17.11132932 -0.05292379 15.28515734 -0.04882812 13.45898438 C-0.03777804 8.97262458 -0.02050279 4.48632616 0 0 Z " fill="#89BA2E" transform="translate(198,136)"/>
<path d="M0 0 C0 0.66 0 1.32 0 2 C-1.98 2.99 -3.96 3.98 -6 5 C-5.505 5.495 -5.505 5.495 -5 6 C-4.93611256 8.69223562 -4.93377874 11.35946794 -4.97265625 14.05078125 C-4.98530727 15.71549268 -4.99766788 17.38020633 -5.00976562 19.04492188 C-5.03456088 21.67837393 -5.06248998 24.31171157 -5.09594727 26.94506836 C-5.1261826 29.48031338 -5.14393941 32.0154132 -5.16015625 34.55078125 C-5.17361588 35.33632889 -5.1870755 36.12187653 -5.20094299 36.93122864 C-5.21854489 40.77193114 -5.18647071 43.74914133 -3 47 C-8.22141673 45.73942925 -12.33161381 43.87028545 -16.8125 40.875 C-17.71718018 40.2864624 -17.71718018 40.2864624 -18.64013672 39.68603516 C-23.35571568 36.56692177 -27.69020124 33.09848968 -31.9140625 29.3359375 C-33.86465203 27.8157841 -33.86465203 27.8157841 -35.9765625 28.03125 C-38.69264666 29.33161461 -40.55588761 31.06365237 -42.75 33.125 C-43.62140625 33.93066406 -44.4928125 34.73632812 -45.390625 35.56640625 C-46.25171875 36.36949219 -47.1128125 37.17257813 -48 38 C-49.4929446 39.36194118 -50.99219382 40.71703061 -52.5 42.0625 C-53.1290625 42.63097656 -53.758125 43.19945312 -54.40625 43.78515625 C-56 45 -56 45 -58 45 C-56.26440562 48.057952 -54.61527381 50.63379989 -52 53 C-55.4375 52.1875 -55.4375 52.1875 -59 51 C-59.495 49.515 -59.495 49.515 -60 48 C-60.33 47.2575 -60.66 46.515 -61 45.75 C-61 42.49733526 -60.61104535 42.15204751 -58.4375 39.875 C-53.80037956 35.62354107 -48.79152764 31.80378019 -43.8125 27.96484375 C-41.2600235 25.99348806 -38.74299031 23.98745388 -36.25 21.94140625 C-9.47960159 0 -9.47960159 0 0 0 Z " fill="#F9FCF2" transform="translate(303,163)"/>
<path d="M0 0 C4.4100358 2.54235273 7.52699239 5.37992069 9.65625 10.08203125 C10.49970204 16.02497494 10.14066712 21.03563405 6.65625 26.08203125 C1.15737164 31.15791897 -3.12043252 32.61508943 -10.51953125 32.45703125 C-15.72490793 31.7658609 -19.2964709 29.41929322 -22.72265625 25.5078125 C-25.73174947 21.00989964 -26.37777531 16.36100256 -25.34375 11.08203125 C-23.34810693 6.08409329 -20.32105712 2.08925236 -15.42578125 -0.2890625 C-10.28627635 -1.84152083 -5.02815373 -1.96936021 0 0 Z " fill="#0B0B0B" transform="translate(189.34375,272.91796875)"/>
<path d="M0 0 C0.33 0 0.66 0 1 0 C1.02505615 1.15935059 1.0501123 2.31870117 1.07592773 3.51318359 C1.17081324 7.85572477 1.2708285 12.19813583 1.37231445 16.54052734 C1.41535903 18.41224095 1.45705238 20.28398619 1.49731445 22.15576172 C1.5557638 24.8617502 1.61923401 27.56758388 1.68359375 30.2734375 C1.70030624 31.09677582 1.71701874 31.92011414 1.73423767 32.7684021 C1.87834472 38.54905593 2.35361667 44.25442314 3 50 C5.10669459 47.89330541 4.25892489 43.28743711 4.31640625 40.37109375 C4.33718735 39.50686295 4.35796844 38.64263214 4.37937927 37.75221252 C4.44497114 34.98072555 4.50380418 32.20914079 4.5625 29.4375 C4.60567608 27.56314077 4.64929006 25.68879157 4.69335938 23.81445312 C4.80066227 19.20973664 4.90190215 14.60492142 5 10 C5.66 10.33 6.32 10.66 7 11 C6.9371582 12.10923828 6.87431641 13.21847656 6.80957031 14.36132812 C6.59120208 18.50498734 6.45422942 22.6481495 6.34082031 26.79589844 C6.28072522 28.58518132 6.19901026 30.37388085 6.09472656 32.16113281 C5.19535115 42.82739763 5.19535115 42.82739763 9.58398438 52.0390625 C14.94158743 55.92810505 14.94158743 55.92810505 21.27197266 56.75805664 C23.4434974 55.80544512 24.8927908 54.5514306 26.625 52.9375 C29.79058824 50 29.79058824 50 32 50 C32 49.34 32 48.68 32 48 C33.57421875 46.4140625 33.57421875 46.4140625 35.6875 44.625 C36.41324219 44.00753906 37.13898438 43.39007813 37.88671875 42.75390625 C40.23449112 40.80538537 42.59564775 38.8784002 45 37 C45.99 38.32 46.98 39.64 48 41 C33.6774053 54.56981655 19.49580964 67.58096437 2.375 77.5859375 C0.15560117 78.90735588 -1.97774242 80.31569904 -4.125 81.75 C-7.95796861 84.18276171 -11.56122479 85.12809773 -16 86 C-16 85.34 -16 84.68 -16 84 C-15.01 84 -14.02 84 -13 84 C-13 83.34 -13 82.68 -13 82 C-13.99 81.67 -14.98 81.34 -16 81 C-14.68 81 -13.36 81 -12 81 C-12 80.34 -12 79.68 -12 79 C-8.37 77.35 -4.74 75.7 -1 74 C-0.67 49.58 -0.34 25.16 0 0 Z " fill="#F9FBF3" transform="translate(192,125)"/>
<path d="M0 0 C7 0 7 0 9.73046875 2.66796875 C10.57256136 3.82468936 11.3911865 4.99880014 12.1875 6.1875 C13.01408605 7.34782502 13.84090586 8.50798356 14.66796875 9.66796875 C15.05645996 10.23177246 15.44495117 10.79557617 15.84521484 11.37646484 C16.92984075 12.90136173 18.11295711 14.35482216 19.30078125 15.80078125 C21 18 21 18 21 20 C21.66 20 22.32 20 23 20 C23 13.4 23 6.8 23 0 C24.98 0 26.96 0 29 0 C29 10.56 29 21.12 29 32 C23 32 23 32 21.15722656 30.57885742 C20.65674805 29.92763916 20.15626953 29.2764209 19.640625 28.60546875 C19.08246094 27.89712891 18.52429688 27.18878906 17.94921875 26.45898438 C17.38847656 25.70939453 16.82773437 24.95980469 16.25 24.1875 C15.67378906 23.44951172 15.09757812 22.71152344 14.50390625 21.95117188 C12.23030366 19.02304733 10.05708183 16.08562274 8 13 C7.67 19.27 7.34 25.54 7 32 C4.69 32 2.38 32 0 32 C0 21.44 0 10.88 0 0 Z " fill="#070707" transform="translate(343,273)"/>
<path d="M0 0 C2.64 0 5.28 0 8 0 C9.41702633 3.14567144 10.83355333 6.29156751 12.25 9.4375 C12.64574219 10.31599609 13.04148437 11.19449219 13.44921875 12.09960938 C14.24334365 13.86360812 15.03566285 15.62842087 15.82617188 17.39404297 C16.60425131 19.12141816 17.39192534 20.84450579 18.18945312 22.56298828 C18.73762695 23.75577393 18.73762695 23.75577393 19.296875 24.97265625 C19.62526367 25.677854 19.95365234 26.38305176 20.29199219 27.10961914 C21 29 21 29 21 32 C18.69 32 16.38 32 14 32 C13.34 29.69 12.68 27.38 12 25 C6.72 25 1.44 25 -4 25 C-4.66 27.31 -5.32 29.62 -6 32 C-8.64 32 -11.28 32 -14 32 C-12.68848878 26.96715643 -10.94739708 22.37821074 -8.6875 17.6875 C-8.38062256 17.04031006 -8.07374512 16.39312012 -7.75756836 15.72631836 C-5.24449495 10.44814413 -2.65839416 5.20653235 0 0 Z " fill="#101010" transform="translate(254,273)"/>
<path d="M0 0 C2.31 0 4.62 0 7 0 C7 10.89 7 21.78 7 33 C4.69 33 2.38 33 0 33 C0 28.71 0 24.42 0 20 C-4.95 20 -9.9 20 -15 20 C-15 24.29 -15 28.58 -15 33 C-17.31 33 -19.62 33 -22 33 C-22 22.44 -22 11.88 -22 1 C-19.69 1 -17.38 1 -15 1 C-15 4.96 -15 8.92 -15 13 C-10.05 13 -5.1 13 0 13 C0 8.71 0 4.42 0 0 Z " fill="#101010" transform="translate(228,272)"/>
<path d="M0 0 C1.00023193 0.00523682 2.00046387 0.01047363 3.03100586 0.01586914 C4.1105957 0.0190918 5.19018555 0.02231445 6.30249023 0.02563477 C8.00695312 0.03820312 8.00695312 0.03820312 9.74584961 0.05102539 C11.45611328 0.05779297 11.45611328 0.05779297 13.20092773 0.06469727 C16.02845312 0.07652792 18.85587601 0.09301129 21.68334961 0.11352539 C21.68334961 2.09352539 21.68334961 4.07352539 21.68334961 6.11352539 C15.74334961 6.11352539 9.80334961 6.11352539 3.68334961 6.11352539 C3.68334961 8.75352539 3.68334961 11.39352539 3.68334961 14.11352539 C8.96334961 14.11352539 14.24334961 14.11352539 19.68334961 14.11352539 C19.68334961 16.09352539 19.68334961 18.07352539 19.68334961 20.11352539 C14.73334961 20.11352539 9.78334961 20.11352539 4.68334961 20.11352539 C4.68334961 22.42352539 4.68334961 24.73352539 4.68334961 27.11352539 C10.62334961 27.11352539 16.56334961 27.11352539 22.68334961 27.11352539 C22.68334961 29.09352539 22.68334961 31.07352539 22.68334961 33.11352539 C14.10334961 33.11352539 5.52334961 33.11352539 -3.31665039 33.11352539 C-3.339562 28.57448173 -3.3594882 24.03563737 -3.37158203 19.49658203 C-3.37662179 17.95132773 -3.38345359 16.40607823 -3.39208984 14.86083984 C-3.40417115 12.6442751 -3.40988212 10.42777321 -3.41430664 8.21118164 C-3.41946793 7.51638199 -3.42462921 6.82158234 -3.4299469 6.10572815 C-3.43014316 4.44123209 -3.37854168 2.7768704 -3.31665039 1.11352539 C-2.31665039 0.11352539 -2.31665039 0.11352539 0 0 Z " fill="#1C1C1C" transform="translate(104.316650390625,271.886474609375)"/>
<path d="M0 0 C7.92 0 15.84 0 24 0 C24 1.65 24 3.3 24 5 C18.39 5 12.78 5 7 5 C7 7.64 7 10.28 7 13 C11.95 13 16.9 13 22 13 C22 14.65 22 16.3 22 18 C17.05 18 12.1 18 7 18 C7 20.64 7 23.28 7 26 C12.94 26 18.88 26 25 26 C25 27.98 25 29.96 25 32 C16.75 32 8.5 32 0 32 C0 21.44 0 10.88 0 0 Z " fill="#080809" transform="translate(311,273)"/>
<path d="M0 0 C2.96912152 1.32475625 5.46853066 2.96902174 8 5 C6.35 6.65 4.7 8.3 3 10 C2.505 9.505 2.01 9.01 1.5 8.5 C-1.96900179 6.41859893 -5.11142289 6.20688427 -9 7 C-12.13836313 9.02685952 -13.65870267 10.45297192 -14.4765625 14.16015625 C-14.74267565 18.35493981 -14.33198013 20.49165543 -12 24.0625 C-7.89592369 26.71304929 -5.82698169 26.5449818 -1 26 C-0.01 25.34 0.98 24.68 2 24 C4.0625 24.1875 4.0625 24.1875 6 25 C6.66 25.99 7.32 26.98 8 28 C2.68685565 32.26269461 -1.61678103 33.76733992 -8.453125 33.41796875 C-12.1585049 32.80987726 -14.22864995 31.50741195 -17 29 C-17.94875 28.154375 -18.8975 27.30875 -19.875 26.4375 C-22.73710314 22.80909182 -22.58169408 19.0865851 -22.3515625 14.6171875 C-21.66566263 9.51104399 -19.75618464 6.48333295 -15.9375 3.1875 C-10.77071379 -0.66010675 -6.34327378 -0.80035938 0 0 Z " fill="#0A0A0A" transform="translate(153,272)"/>
<path d="M0 0 C1.134375 0.020625 2.26875 0.04125 3.4375 0.0625 C1.31125685 6.6724638 -1.41276555 12.98857344 -4.125 19.375 C-4.63224609 20.57962891 -5.13949219 21.78425781 -5.66210938 23.02539062 C-6.14615234 24.16814453 -6.63019531 25.31089844 -7.12890625 26.48828125 C-7.57177979 27.53411377 -8.01465332 28.57994629 -8.47094727 29.6574707 C-9.5625 32.0625 -9.5625 32.0625 -10.5625 33.0625 C-12.89547433 33.10342937 -15.22955225 33.10491723 -17.5625 33.0625 C-19.41854731 28.82867685 -21.26983366 24.59281693 -23.11669922 20.35498047 C-23.74592077 18.91300087 -24.37644967 17.47159103 -25.00830078 16.03076172 C-25.91521331 13.96208997 -26.81743595 11.89142849 -27.71875 9.8203125 C-28.00310913 9.17442169 -28.28746826 8.52853088 -28.58044434 7.86306763 C-30.5625 3.29024341 -30.5625 3.29024341 -30.5625 1.0625 C-28.2525 1.0625 -25.9425 1.0625 -23.5625 1.0625 C-19.9186763 8.08987428 -16.32456637 15.30228852 -14.5625 23.0625 C-13.9025 23.0625 -13.2425 23.0625 -12.5625 23.0625 C-12.170625 21.845625 -11.77875 20.62875 -11.375 19.375 C-4.94558824 0.08676471 -4.94558824 0.08676471 0 0 Z " fill="#0C0C0C" transform="translate(303.5625,271.9375)"/>
<path d="M0 0 C0 11.22 0 22.44 0 34 C-1.98 33.34 -3.96 32.68 -6 32 C-6.91523438 31.69964844 -7.83046875 31.39929688 -8.7734375 31.08984375 C-11.89541488 29.7069859 -13.75148677 28.59970958 -16 26 C-17.7307088 20.60241435 -17.65963743 14.40887017 -16 9 C-13.45031561 5.81022748 -10.73820499 4.50531745 -7 3 C-6.030625 2.38125 -5.06125 1.7625 -4.0625 1.125 C-2 0 -2 0 0 0 Z " fill="#8CB937" transform="translate(298,170)"/>
<path d="M0 0 C2.9375 2.4375 2.9375 2.4375 5 5 C5.33 5.33 5.66 5.66 6 6 C6.58169863 10.61544489 6.6241677 14.00133167 4.125 18 C0.6194893 21.29930419 -2.06475595 21.41481511 -6.73828125 21.33203125 C-9 21 -9 21 -12 19.0625 C-14.59703626 15.08578822 -15.59289302 11.75149478 -15 7 C-11.70699221 0.78848335 -6.8282495 -1.21652721 0 0 Z " fill="#F1F1F1" transform="translate(186,278)"/>
<path d="M0 0 C0.33 0 0.66 0 1 0 C1 10.89 1 21.78 1 33 C-1.97 32.67 -4.94 32.34 -8 32 C-8 32.66 -8 33.32 -8 34 C-10.35438733 35.42944945 -11.48032433 36.08661261 -14.25 35.625 C-14.8275 35.41875 -15.405 35.2125 -16 35 C-14.68 34.34 -13.36 33.68 -12 33 C-28.9181556 32.41287768 -42.48942191 32.53647919 -56 44 C-59.99748627 47.88761879 -62.74522992 51.86413481 -65 57 C-65.33 57 -65.66 57 -66 57 C-66.33 59.64 -66.66 62.28 -67 65 C-67.33 65 -67.66 65 -68 65 C-68.02714735 62.77090129 -68.04646254 60.54170633 -68.0625 58.3125 C-68.07990234 56.45044922 -68.07990234 56.45044922 -68.09765625 54.55078125 C-68.01478673 51.53764546 -67.70839449 48.91724661 -67 46 C-66.01 47.32 -65.02 48.64 -64 50 C-63.57589844 49.41992188 -63.15179688 48.83984375 -62.71484375 48.2421875 C-55.39570579 38.4940609 -47.30765847 31.5490873 -35 29 C-31.1489049 28.77466795 -27.29453423 28.81484185 -23.4375 28.8125 C-21.88579102 28.79413086 -21.88579102 28.79413086 -20.30273438 28.77539062 C-19.27341797 28.77345703 -18.24410156 28.77152344 -17.18359375 28.76953125 C-16.26118896 28.76542236 -15.33878418 28.76131348 -14.38842773 28.75708008 C-9.54678863 29.10418224 -4.77576871 30.13167842 0 31 C0 20.77 0 10.54 0 0 Z " fill="#D7EDB0" transform="translate(171,129)"/>
<path d="M0 0 C0.33 0 0.66 0 1 0 C1.02505615 1.1331665 1.0501123 2.26633301 1.07592773 3.43383789 C1.17139508 7.7112616 1.27125233 11.98857427 1.37231445 16.26586914 C1.4151449 18.10340749 1.45684614 19.94097257 1.49731445 21.77856445 C1.69221045 30.59700687 1.90779824 39.38970295 2.5625 48.1875 C2.97500875 53.83590409 2.99426498 59.29477839 2.5625 64.9375 C2.51029297 65.72833984 2.45808594 66.51917969 2.40429688 67.33398438 C2.27834487 69.22326448 2.14059114 71.11175283 2 73 C1.01 73.495 1.01 73.495 0 74 C0 49.58 0 25.16 0 0 Z M5 10 C5.66 10.33 6.32 10.66 7 11 C6.98952637 12.14065918 6.97905273 13.28131836 6.96826172 14.45654297 C6.93212283 18.67949294 6.90912188 22.90242919 6.89013672 27.12548828 C6.88006516 28.95493873 6.86640724 30.78437303 6.84912109 32.61376953 C6.82492323 35.23994934 6.81352868 37.86591675 6.8046875 40.4921875 C6.79436493 41.31306854 6.78404236 42.13394958 6.77340698 42.97970581 C6.77300816 44.98789142 6.8775046 46.99555382 7 49 C7.66 49.66 8.32 50.32 9 51 C7.35 50.67 5.7 50.34 4 50 C4.33 36.8 4.66 23.6 5 10 Z " fill="#D3E4B3" transform="translate(192,125)"/>
<path d="M0 0 C1.32 1.32 2.64 2.64 4 4 C-12.05075473 19.06326022 -12.05075473 19.06326022 -20 26 C-21.32 24.35 -22.64 22.7 -24 21 C-22.75312408 20.03760548 -21.50235031 19.08025991 -20.25 18.125 C-19.20585937 17.32449219 -19.20585937 17.32449219 -18.140625 16.5078125 C-16.15277397 15.10761086 -14.20156614 14.02144735 -12 13 C-12 12.34 -12 11.68 -12 11 C-10.390625 9.4140625 -10.390625 9.4140625 -8.25 7.625 C-5.3756268 5.18382134 -2.61456008 2.72350008 0 0 Z " fill="#E9F6D1" transform="translate(236,162)"/>
<path d="M0 0 C0.66 0.33 1.32 0.66 2 1 C1.67 1.33 1.34 1.66 1 2 C1.99 2.66 2.98 3.32 4 4 C3.33097656 4.35964844 2.66195313 4.71929687 1.97265625 5.08984375 C-2.61145283 8.0354802 -6.50696378 11.72397054 -10.56054688 15.34960938 C-11.20185547 15.91615234 -11.84316406 16.48269531 -12.50390625 17.06640625 C-13.07955322 17.58146729 -13.6552002 18.09652832 -14.24829102 18.62719727 C-16.0754452 20.0591259 -17.89442648 21.03478917 -20 22 C-18.26440562 25.057952 -16.61527381 27.63379989 -14 30 C-17.4375 29.1875 -17.4375 29.1875 -21 28 C-21.33 27.01 -21.66 26.02 -22 25 C-22.33 24.2575 -22.66 23.515 -23 22.75 C-23 19.49733526 -22.61104535 19.15204751 -20.4375 16.875 C-15.56626399 12.38989855 -10.256023 8.39087033 -5.01171875 4.35546875 C-2.0792717 2.16018295 -2.0792717 2.16018295 0 0 Z " fill="#EAF8D3" transform="translate(265,186)"/>
<path d="M0 0 C0.33 0 0.66 0 1 0 C1 5.61 1 11.22 1 17 C3.475 17.99 3.475 17.99 6 19 C16.38420108 23.76840215 16.38420108 23.76840215 18.6875 28.375 C18.790625 29.24125 18.89375 30.1075 19 31 C13.54363646 29.70053314 9.46107502 27.72742957 4.8125 24.625 C4.20986328 24.23828125 3.60722656 23.8515625 2.98632812 23.453125 C-0.37557477 21.25368029 -3.27931496 18.95697282 -6 16 C-4.68 16 -3.36 16 -2 16 C-0.5192152 13.0384304 -0.64685963 10.16493705 -0.4375 6.875 C-0.35371094 5.59367188 -0.26992188 4.31234375 -0.18359375 2.9921875 C-0.09271484 1.51105469 -0.09271484 1.51105469 0 0 Z " fill="#E6F4CB" transform="translate(281,179)"/>
<path d="M0 0 C0.33 0 0.66 0 1 0 C1 1.98 1 3.96 1 6 C0.01 6.495 0.01 6.495 -1 7 C0.0041394 6.99214478 0.0041394 6.99214478 1.02856445 6.98413086 C4.12319971 6.96307529 7.21781981 6.9502503 10.3125 6.9375 C11.36501953 6.92912109 12.41753906 6.92074219 13.50195312 6.91210938 C20.39311686 6.89090579 27.15030513 7.24328318 34 8 C34 8.66 34 9.32 34 10 C35.32 10.33 36.64 10.66 38 11 C35.04659291 12.47670355 33.22990919 11.39408351 30.0625 10.5625 C24.04285986 9.21583824 18.35320415 8.6632963 12.1875 8.625 C11.41220947 8.61154541 10.63691895 8.59809082 9.83813477 8.58422852 C4.80958969 8.62220604 0.65580976 9.53469073 -4.05517578 11.28979492 C-6.33457875 12.12218046 -8.60669614 12.61398325 -11 13 C-10.67 12.01 -10.34 11.02 -10 10 C-12.31 10 -14.62 10 -17 10 C-17 8.02 -17 6.04 -17 4 C-16.67 4 -16.34 4 -16 4 C-16 5.65 -16 7.3 -16 9 C-15.09636719 8.71125 -14.19273437 8.4225 -13.26171875 8.125 C-12.08222656 7.75375 -10.90273438 7.3825 -9.6875 7 C-8.51574219 6.62875 -7.34398437 6.2575 -6.13671875 5.875 C-3 5 -3 5 0 5 C0 3.35 0 1.7 0 0 Z " fill="#E6F4CD" transform="translate(298,121)"/>
<path d="M0 0 C11.83651449 2.94730787 20.93750279 9.47041725 27.37109375 19.91796875 C29.53982057 24.41178828 29.53982057 24.41178828 28.37109375 27.91796875 C28.06816406 27.32628906 27.76523437 26.73460937 27.453125 26.125 C24.91370759 21.33526809 22.50049437 17.53119429 18.37109375 13.91796875 C17.22640625 12.89703125 17.22640625 12.89703125 16.05859375 11.85546875 C9.04390149 6.79836503 1.76575612 4.76479447 -6.62890625 2.91796875 C-4.31289446 0.7443123 -3.23497362 -0.10094271 0 0 Z " fill="#DEF0B9" transform="translate(342.62890625,159.08203125)"/>
<path d="M0 0 C0.33 0 0.66 0 1 0 C1 10.89 1 21.78 1 33 C-1.97 32.67 -4.94 32.34 -8 32 C-8 32.66 -8 33.32 -8 34 C-10.35438733 35.42944945 -11.48032433 36.08661261 -14.25 35.625 C-14.8275 35.41875 -15.405 35.2125 -16 35 C-14.68 34.34 -13.36 33.68 -12 33 C-14.65918166 32.11360611 -16.48064641 31.82010975 -19.23046875 31.68359375 C-20.03291016 31.64169922 -20.83535156 31.59980469 -21.66210938 31.55664062 C-22.49548828 31.51732422 -23.32886719 31.47800781 -24.1875 31.4375 C-25.03248047 31.39431641 -25.87746094 31.35113281 -26.74804688 31.30664062 C-28.83184433 31.20068482 -30.91590103 31.0998498 -33 31 C-30.60809204 28.60809204 -30.07482373 28.74407989 -26.81640625 28.734375 C-25.97013672 28.73179687 -25.12386719 28.72921875 -24.25195312 28.7265625 C-23.36443359 28.73429687 -22.47691406 28.74203125 -21.5625 28.75 C-20.70978516 28.74226563 -19.85707031 28.73453125 -18.97851562 28.7265625 C-12.25874051 28.74675717 -6.8123889 29.76138384 0 31 C0 20.77 0 10.54 0 0 Z " fill="#E2F1C4" transform="translate(171,129)"/>
<path d="M0 0 C2.64 0 5.28 0 8 0 C8 0.66 8 1.32 8 2 C11.96 2.33 15.92 2.66 20 3 C20 3.66 20 4.32 20 5 C28.67600366 5.11550892 37.38844074 5.22160473 46 4 C46.33 3.67 46.66 3.34 47 3 C48.66617115 2.95936168 50.33388095 2.957279 52 3 C52 2.01 52 1.02 52 0 C54.31 0.33 56.62 0.66 59 1 C56.63884747 2.57410169 54.84270959 3.57208494 52.25 4.5625 C51.61578125 4.81128906 50.9815625 5.06007812 50.328125 5.31640625 C33.4134721 10.28295702 16.09887719 6.81012109 0 1 C0 0.67 0 0.34 0 0 Z " fill="#9BBC51" transform="translate(284,236)"/>
<path d="M0 0 C-2 2 -4 4 -6 6 C-6.12509834 8.64651343 -6.18605995 11.26822219 -6.20532227 13.91625977 C-6.21522186 14.74545929 -6.22512146 15.57465881 -6.23532104 16.4289856 C-6.2670312 19.18309629 -6.29173088 21.93722426 -6.31640625 24.69140625 C-6.33696757 26.59570273 -6.35796382 28.49999455 -6.37937927 30.40428162 C-6.43468485 35.42662806 -6.48405656 40.44901627 -6.53222656 45.47143555 C-6.58237979 50.59232315 -6.63809803 55.7131498 -6.69335938 60.83398438 C-6.80104467 70.8892709 -6.90246645 80.94461025 -7 91 C-7.33 91 -7.66 91 -8 91 C-8.02314654 79.70842517 -8.04092692 68.41685596 -8.05181217 57.12526226 C-8.05703592 51.88240917 -8.0641244 46.63957228 -8.07543945 41.39672852 C-8.08628631 36.33930616 -8.09228067 31.28189941 -8.09487724 26.22446632 C-8.09672824 24.2927202 -8.10034264 22.36097496 -8.10573006 20.42923546 C-8.1129643 17.72843946 -8.11398993 15.02770839 -8.11352539 12.3269043 C-8.11712067 11.52417587 -8.12071594 10.72144745 -8.12442017 9.89439392 C-8.11838796 6.6640487 -8.02911701 4.08735103 -7 1 C-4.53721199 -0.231394 -2.7204945 -0.07159196 0 0 Z " fill="#F0FADA" transform="translate(183,115)"/>
<path d="M0 0 C0 0.66 0 1.32 0 2 C-1.98 2.99 -3.96 3.98 -6 5 C-5.67 5.66 -5.34 6.32 -5 7 C-7.29129293 8.31315613 -9.5830155 9.62555193 -11.875 10.9375 C-12.52597656 11.31068359 -13.17695313 11.68386719 -13.84765625 12.06835938 C-18.7734375 14.88671875 -18.7734375 14.88671875 -21 16 C-21 15.34 -21 14.68 -21 14 C-21.99 14 -22.98 14 -24 14 C-24 14.99 -24 15.98 -24 17 C-25.65 17 -27.3 17 -29 17 C-25.81744477 13.54240914 -22.25789445 11.00225542 -18.3125 8.5 C-17.6947168 8.10562744 -17.07693359 7.71125488 -16.44042969 7.30493164 C-4.79985355 0 -4.79985355 0 0 0 Z " fill="#ECF7D6" transform="translate(303,163)"/>
<path d="M0 0 C0.76151367 0.00499512 1.52302734 0.00999023 2.30761719 0.01513672 C3.74089355 0.04244873 3.74089355 0.04244873 5.203125 0.0703125 C8.255625 0.1115625 11.308125 0.1528125 14.453125 0.1953125 C14.453125 10.4253125 14.453125 20.6553125 14.453125 31.1953125 C7.00596671 31.1953125 7.00596671 31.1953125 3.453125 30.1953125 C1.94041895 30.05402132 0.42384372 29.95068433 -1.09375 29.87890625 C-1.93808594 29.83701172 -2.78242188 29.79511719 -3.65234375 29.75195312 C-4.52503906 29.71263672 -5.39773437 29.67332031 -6.296875 29.6328125 C-7.62912109 29.56803711 -7.62912109 29.56803711 -8.98828125 29.50195312 C-11.17433463 29.39617635 -13.36049589 29.29408704 -15.546875 29.1953125 C-15.546875 28.8653125 -15.546875 28.5353125 -15.546875 28.1953125 C-11.08855518 28.16639704 -6.63025931 28.14854269 -2.171875 28.1328125 C-0.90085938 28.12443359 0.37015625 28.11605469 1.6796875 28.10742188 C3.49726563 28.10258789 3.49726563 28.10258789 5.3515625 28.09765625 C7.03258057 28.08980103 7.03258057 28.08980103 8.74755859 28.08178711 C11.453125 28.1953125 11.453125 28.1953125 13.453125 29.1953125 C13.453125 19.9553125 13.453125 10.7153125 13.453125 1.1953125 C10.153125 1.5253125 6.853125 1.8553125 3.453125 2.1953125 C1.24550479 2.25517205 -0.96359268 2.2834902 -3.171875 2.2578125 C-4.19539062 2.24878906 -5.21890625 2.23976562 -6.2734375 2.23046875 C-7.02367187 2.21886719 -7.77390625 2.20726562 -8.546875 2.1953125 C-5.55561181 0.47325062 -3.44001787 -0.04648673 0 0 Z " fill="#97BA53" transform="translate(156.546875,128.8046875)"/>
<path d="M0 0 C0.93247559 -0.01369629 1.86495117 -0.02739258 2.82568359 -0.04150391 C4.14947021 -0.03256104 4.14947021 -0.03256104 5.5 -0.0234375 C6.2940625 -0.02005371 7.088125 -0.01666992 7.90625 -0.01318359 C10.47110675 0.46234372 11.36490857 1.3959891 13 3.375 C12.31373535 3.40005615 11.6274707 3.4251123 10.92041016 3.45092773 C7.82174183 3.56671427 4.72339077 3.68951885 1.625 3.8125 C0.54476563 3.85181641 -0.53546875 3.89113281 -1.6484375 3.93164062 C-2.6796875 3.97353516 -3.7109375 4.01542969 -4.7734375 4.05859375 C-5.72653809 4.09525146 -6.67963867 4.13190918 -7.66162109 4.16967773 C-10.02132349 4.23263465 -10.02132349 4.23263465 -12 5.375 C-14.2072923 5.44592842 -16.41667452 5.45915025 -18.625 5.4375 C-19.81351562 5.42847656 -21.00203125 5.41945312 -22.2265625 5.41015625 C-23.14179688 5.39855469 -24.05703125 5.38695312 -25 5.375 C-17.39756853 0.30671235 -8.88468777 0.06805293 0 0 Z " fill="#E2F2C7" transform="translate(328,157.625)"/>
<path d="M0 0 C1.54204102 0.00966797 1.54204102 0.00966797 3.11523438 0.01953125 C4.18708984 0.03628906 5.25894531 0.05304688 6.36328125 0.0703125 C7.44673828 0.07933594 8.53019531 0.08835938 9.64648438 0.09765625 C12.32313835 0.1212391 14.99934922 0.15415124 17.67578125 0.1953125 C16.36598199 2.81491102 15.02821103 3.15271493 12.42578125 4.4453125 C8.0114589 6.81037869 5.61927981 9.18145083 2.67578125 13.1953125 C2.01578125 13.8553125 1.35578125 14.5153125 0.67578125 15.1953125 C1.23675557 11.8294666 2.11428739 9.21420063 3.67578125 6.1953125 C3.67578125 5.5353125 3.67578125 4.8753125 3.67578125 4.1953125 C1.24190372 2.97837374 -0.74260721 2.87571354 -3.44921875 2.6328125 C-4.35929688 2.54902344 -5.269375 2.46523437 -6.20703125 2.37890625 C-6.90570313 2.31832031 -7.604375 2.25773438 -8.32421875 2.1953125 C-4.97302356 -0.03881763 -3.90644325 -0.04316512 0 0 Z " fill="#8BB13E" transform="translate(142.32421875,160.8046875)"/>
<path d="M0 0 C4.13668601 3.5700167 4.41616717 7.75892596 5 13 C5.15010346 17.6725754 5.12119937 22.32709097 5 27 C4.67 27 4.34 27 4 27 C2.06602374 20.55341246 2.06602374 20.55341246 1.65234375 17.0859375 C0.90650843 13.55773451 -0.35042745 11.62196988 -2.5 8.75 C-5.97468354 4.05063291 -5.97468354 4.05063291 -7 2 C-6.01 1.67 -5.02 1.34 -4 1 C-3.34 1.99 -2.68 2.98 -2 4 C-1.34 2.68 -0.68 1.36 0 0 Z " fill="#8DB43F" transform="translate(369,167)"/>
<path d="M0 0 C0.33 0 0.66 0 1 0 C1 24.42 1 48.84 1 74 C-1.475 74.99 -1.475 74.99 -4 76 C-4.33 75.34 -4.66 74.68 -5 74 C-3.02 73.01 -3.02 73.01 -1 72 C-0.67 48.24 -0.34 24.48 0 0 Z " fill="#88B139" transform="translate(191,125)"/>
<path d="M0 0 C4.27950966 1.68222626 8.04054217 3.67090716 12 6 C12 6.33 12 6.66 12 7 C8.37 6.67 4.74 6.34 1 6 C1 16.23 1 26.46 1 37 C1.99 37 2.98 37 4 37 C4.66 38.32 5.32 39.64 6 41 C1.125 39.125 1.125 39.125 0 38 C-0.08861992 35.1883662 -0.11522355 32.40141745 -0.09765625 29.58984375 C-0.0962413 28.74780899 -0.09482635 27.90577423 -0.09336853 27.03822327 C-0.08775263 24.33794665 -0.07519748 21.63775172 -0.0625 18.9375 C-0.05748705 17.11132932 -0.05292379 15.28515734 -0.04882812 13.45898438 C-0.03777804 8.97262458 -0.02050279 4.48632616 0 0 Z " fill="#8EB43F" transform="translate(198,136)"/>
<path d="M0 0 C0.70511719 0.37898437 1.41023438 0.75796875 2.13671875 1.1484375 C-4.18154492 6.15039624 -9.91549215 9.58726464 -17.86328125 11.1484375 C-17.86328125 10.4884375 -17.86328125 9.8284375 -17.86328125 9.1484375 C-16.87328125 9.1484375 -15.88328125 9.1484375 -14.86328125 9.1484375 C-14.86328125 8.4884375 -14.86328125 7.8284375 -14.86328125 7.1484375 C-15.85328125 6.8184375 -16.84328125 6.4884375 -17.86328125 6.1484375 C-16.54328125 6.1484375 -15.22328125 6.1484375 -13.86328125 6.1484375 C-13.86328125 5.4884375 -13.86328125 4.8284375 -13.86328125 4.1484375 C-12.14523325 3.25180299 -10.41324628 2.38184162 -8.67578125 1.5234375 C-7.71285156 1.03617188 -6.74992188 0.54890625 -5.7578125 0.046875 C-2.86328125 -0.8515625 -2.86328125 -0.8515625 0 0 Z " fill="#EEFADB" transform="translate(193.86328125,199.8515625)"/>
<path d="M0 0 C2.48794892 1.47932098 4.74923565 3.18382128 7 5 C6.01 5.66 5.02 6.32 4 7 C3.443125 6.484375 2.88625 5.96875 2.3125 5.4375 C0.05914993 3.70523302 0.05914993 3.70523302 -2.75 4.3125 C-3.4925 4.539375 -4.235 4.76625 -5 5 C-4.67 4.01 -4.34 3.02 -4 2 C-7.44175831 3.14725277 -8.29119275 4.25284652 -10.5625 7 C-13.80152672 10.90076336 -13.80152672 10.90076336 -16 12 C-16 11.34 -16 10.68 -16 10 C-17.32 10.33 -18.64 10.66 -20 11 C-14.66943714 5.34637272 -8.37233084 -1.14168148 0 0 Z " fill="#93B945" transform="translate(240,79)"/>
<path d="M0 0 C0.90117554 0.21329956 0.90117554 0.21329956 1.82055664 0.4309082 C8.11129755 1.81838395 14.00813073 2.28237218 20.4375 2.1875 C21.80684692 2.17783203 21.80684692 2.17783203 23.20385742 2.16796875 C29.5020632 2.09617515 35.74936932 1.81975484 42 1 C42 1.66 42 2.32 42 3 C40.2984375 3.2165625 40.2984375 3.2165625 38.5625 3.4375 C35.19222799 3.61171478 35.19222799 3.61171478 34 5 C23.22677473 5.99584435 11.20848228 5.88385539 1 2 C0.67 1.34 0.34 0.68 0 0 Z " fill="#ECF8D2" transform="translate(294,240)"/>
<path d="M0 0 C0.99 0.33 1.98 0.66 3 1 C0.63707344 3.52588702 -0.66462511 4.88820837 -4 6 C-4.33 6.66 -4.66 7.32 -5 8 C-3.68 8.66 -2.36 9.32 -1 10 C-2.65 11.65 -4.3 13.3 -6 15 C-7.9375 14.25 -7.9375 14.25 -10 13 C-10.62890625 10.921875 -10.62890625 10.921875 -11 9 C-9.23977508 7.46690087 -7.46646537 5.94881299 -5.6875 4.4375 C-4.70136719 3.59058594 -3.71523437 2.74367187 -2.69921875 1.87109375 C-1.80847656 1.25363281 -0.91773438 0.63617188 0 0 Z M-3 6 C-2.34 6 -1.68 6 -1 6 C-1 6.66 -1 7.32 -1 8 C-1.66 8 -2.32 8 -3 8 C-3 7.34 -3 6.68 -3 6 Z " fill="#92B746" transform="translate(256,199)"/>
<path d="M0 0 C0.66 0 1.32 0 2 0 C2.50559908 1.43554025 3.0042749 2.8735202 3.5 4.3125 C3.7784375 5.11300781 4.056875 5.91351563 4.34375 6.73828125 C5 9 5 9 5 12 C2.03 12 -0.94 12 -4 12 C-3.27467453 9.09869813 -2.49882535 6.51867482 -1.4375 3.75 C-1.16808594 3.04359375 -0.89867187 2.3371875 -0.62109375 1.609375 C-0.41613281 1.07828125 -0.21117187 0.5471875 0 0 Z " fill="#E3E3E3" transform="translate(257,280)"/>
<path d="M0 0 C1.32 1.32 2.64 2.64 4 4 C2.61860662 5.3482881 1.2192352 6.67817378 -0.1875 8 C-0.96480469 8.7425 -1.74210938 9.485 -2.54296875 10.25 C-5.33045204 12.23536171 -6.65781368 12.37992882 -10 12 C-8.62845314 8.81580579 -7.13830017 7.02887404 -4.4375 4.875 C-1.78974334 2.79096366 -1.78974334 2.79096366 0 0 Z " fill="#F4FBE4" transform="translate(236,162)"/>
<path d="M0 0 C1.61854802 0.00399641 3.23709661 0.01877593 4.85546875 0.04296875 C5.66306641 0.04361328 6.47066406 0.04425781 7.30273438 0.04492188 C11.33955463 0.07467731 15.10524054 0.23205896 19.04296875 1.23046875 C19.04296875 1.56046875 19.04296875 1.89046875 19.04296875 2.23046875 C11.12296875 2.72546875 11.12296875 2.72546875 3.04296875 3.23046875 C2.71296875 4.22046875 2.38296875 5.21046875 2.04296875 6.23046875 C-0.59703125 4.91046875 -3.23703125 3.59046875 -5.95703125 2.23046875 C-3.95703125 0.23046875 -3.95703125 0.23046875 0 0 Z " fill="#91B747" transform="translate(321.95703125,160.76953125)"/>
<path d="M0 0 C0.66 0.33 1.32 0.66 2 1 C0.25 5.875 0.25 5.875 -2 7 C-2.33 19.21 -2.66 31.42 -3 44 C-3.33 44 -3.66 44 -4 44 C-4.09880115 38.21595259 -4.1714363 32.43239516 -4.21972656 26.64770508 C-4.23985481 24.6795191 -4.26716019 22.71139301 -4.30175781 20.7434082 C-4.35022311 17.9160282 -4.37295618 15.08943799 -4.390625 12.26171875 C-4.41127014 11.38037766 -4.43191528 10.49903656 -4.45318604 9.59098816 C-4.45544041 3.46768875 -4.45544041 3.46768875 -1.97558594 0.92114258 C-1.32364258 0.61716553 -0.67169922 0.31318848 0 0 Z " fill="#F7FDE8" transform="translate(197,121)"/>
<path d="M0 0 C-0.54087318 3.78611227 -2.11722332 5.55400767 -5 8 C-5.66 8 -6.32 8 -7 8 C-5.26440562 11.057952 -3.61527381 13.63379989 -1 16 C-4.4375 15.1875 -4.4375 15.1875 -8 14 C-9.71428571 8.85714286 -9.71428571 8.85714286 -10 6 C-7.85622649 2.90343827 -3.81796778 0 0 0 Z " fill="#EAF6D3" transform="translate(252,200)"/>
<path d="M0 0 C0.33 0 0.66 0 1 0 C1 5.61 1 11.22 1 17 C2.32 17.66 3.64 18.32 5 19 C5.75 21.125 5.75 21.125 6 23 C-2.57142857 20.14285714 -2.57142857 20.14285714 -6 16 C-4.68 16 -3.36 16 -2 16 C-0.5192152 13.0384304 -0.64685963 10.16493705 -0.4375 6.875 C-0.35371094 5.59367188 -0.26992188 4.31234375 -0.18359375 2.9921875 C-0.09271484 1.51105469 -0.09271484 1.51105469 0 0 Z " fill="#F0FADC" transform="translate(281,179)"/>
<path d="M0 0 C0.66 0.33 1.32 0.66 2 1 C-3.04232365 9.10373444 -3.04232365 9.10373444 -8.0625 10.625 C-8.701875 10.74875 -9.34125 10.8725 -10 11 C-13.11785113 11.64644661 -13.11785113 11.64644661 -14 14 C-15.32 13.67 -16.64 13.34 -18 13 C-17.20335937 12.48050781 -16.40671875 11.96101562 -15.5859375 11.42578125 C-10.15200638 7.84943486 -4.86540221 4.32480197 0 0 Z " fill="#95BD49" transform="translate(214,188)"/>
<path d="M0 0 C0.66 0.66 1.32 1.32 2 2 C-4 10 -4 10 -5.65625 12 C-7.14460453 14.21522535 -7.46792172 15.61506064 -7.6875 18.25 C-7.790625 19.4875 -7.89375 20.725 -8 22 C-8.33 22 -8.66 22 -9 22 C-9.02714735 19.77090129 -9.04646254 17.54170633 -9.0625 15.3125 C-9.07990234 13.45044922 -9.07990234 13.45044922 -9.09765625 11.55078125 C-9.01478673 8.53764546 -8.70839449 5.91724661 -8 3 C-7.01 4.32 -6.02 5.64 -5 7 C-3.35 4.69 -1.7 2.38 0 0 Z " fill="#ADC776" transform="translate(112,172)"/>
<path d="M0 0 C0.33 0 0.66 0 1 0 C1.04898437 0.89203125 1.09796875 1.7840625 1.1484375 2.703125 C1.22320312 3.87359375 1.29796875 5.0440625 1.375 6.25 C1.44460938 7.41015625 1.51421875 8.5703125 1.5859375 9.765625 C1.96457416 12.72327739 2.27477711 14.58820882 4 17 C4.99 17.144375 5.98 17.28875 7 17.4375 C7.99 17.623125 8.98 17.80875 10 18 C11.375 20.5625 11.375 20.5625 12 23 C7.35142452 21.67183558 3.65545958 20.20868118 0 17 C-0.73998174 14.05356814 -0.56995106 11.26424327 -0.375 8.25 C-0.34792969 7.45722656 -0.32085937 6.66445312 -0.29296875 5.84765625 C-0.22247273 3.89726634 -0.11485499 1.94828099 0 0 Z " fill="#9FBF5B" transform="translate(282,179)"/>
<path d="M0 0 C-2.51421267 2.76903152 -5.34658677 4.63292444 -8.5 6.625 C-9.4590625 7.23601562 -10.418125 7.84703125 -11.40625 8.4765625 C-14 10 -14 10 -17 11 C-15.58590577 7.60470083 -13.97643772 5.94087183 -11 3.8125 C-9.948125 3.04873047 -9.948125 3.04873047 -8.875 2.26953125 C-5.70605092 0.12388864 -3.80329209 -0.10008663 0 0 Z " fill="#E3F4C1" transform="translate(130,162)"/>
<path d="M0 0 C2.31 0.33 4.62 0.66 7 1 C-0.91702029 6.27801353 -8.69254706 6.6209043 -18 7 C-18 6.34 -18 5.68 -18 5 C-17.14535156 4.93941406 -16.29070312 4.87882813 -15.41015625 4.81640625 C-14.30542969 4.73261719 -13.20070313 4.64882812 -12.0625 4.5625 C-10.96035156 4.48128906 -9.85820312 4.40007812 -8.72265625 4.31640625 C-6.08890097 4.29581916 -6.08890097 4.29581916 -5 3 C-3.33382885 2.95936168 -1.66611905 2.957279 0 3 C0 2.01 0 1.02 0 0 Z " fill="#94B84E" transform="translate(336,236)"/>
<path d="M0 0 C0.964851 2.55743639 1.17207225 3.61388666 0.0390625 6.15625 C-0.42757812 6.9296875 -0.89421875 7.703125 -1.375 8.5 C-4.46486419 14.23465099 -4.87842995 19.56783893 -5 26 C-5.33 26 -5.66 26 -6 26 C-6.57833622 16.36106302 -6.60077322 9.2634359 -1 1 C-0.67 0.67 -0.34 0.34 0 0 Z " fill="#E4F2C9" transform="translate(147,170)"/>
<path d="M0 0 C-0.89145364 3.56581457 -1.7361499 5.71416239 -4.25 8.4375 C-7 10 -7 10 -10.3125 9.75 C-11.199375 9.5025 -12.08625 9.255 -13 9 C-4.66666667 0 -4.66666667 0 0 0 Z " fill="#96BE44" transform="translate(220,90)"/>
<path d="M0 0 C2.77141717 -0.08089542 5.54047819 -0.14044062 8.3125 -0.1875 C9.09818359 -0.21263672 9.88386719 -0.23777344 10.69335938 -0.26367188 C11.45068359 -0.27333984 12.20800781 -0.28300781 12.98828125 -0.29296875 C14.03302612 -0.31653442 14.03302612 -0.31653442 15.09887695 -0.34057617 C17 0 17 0 20 3 C13.4 2.67 6.8 2.34 0 2 C0 1.34 0 0.68 0 0 Z " fill="#F3FCDB" transform="translate(321,158)"/>
<path d="M0 0 C1.32 0.33 2.64 0.66 4 1 C1.87657342 2.64789866 -0.2486449 4.29338788 -2.375 5.9375 C-2.97828125 6.40607422 -3.5815625 6.87464844 -4.203125 7.35742188 C-8.7734375 10.88671875 -8.7734375 10.88671875 -11 12 C-11 10.68 -11 9.36 -11 8 C-10.38125 7.9175 -9.7625 7.835 -9.125 7.75 C-6.81562433 7.18741541 -6.81562433 7.18741541 -5.75 4.9375 C-5.5025 4.298125 -5.255 3.65875 -5 3 C-3.68 3 -2.36 3 -1 3 C-0.67 2.01 -0.34 1.02 0 0 Z " fill="#97BB4D" transform="translate(272,178)"/>
<path d="M0 0 C2.97 0.495 2.97 0.495 6 1 C6 1.99 6 2.98 6 4 C3 6 3 6 1.125 5.8125 C-1.45651762 4.82544914 -3.67490606 3.48547668 -6 2 C-3.50907189 0.75453595 -2.58919267 1.2232422 0 2 C0 1.34 0 0.68 0 0 Z " fill="#8EB540" transform="translate(211,177)"/>
<path d="M0 0 C0 3 0 3 -2.1875 5.375 C-3.115625 6.24125 -4.04375 7.1075 -5 8 C-6.2684375 9.3303125 -6.2684375 9.3303125 -7.5625 10.6875 C-9.72207159 12.73632433 -11.35381587 13.77141451 -14 15 C-14.33 15.66 -14.66 16.32 -15 17 C-15 14 -15 14 -13.75 12.421875 C-13.1725 11.87015625 -12.595 11.3184375 -12 10.75 C-11.36964844 10.14542969 -10.73929688 9.54085937 -10.08984375 8.91796875 C-6.78110218 5.88134798 -3.41407974 2.91748632 0 0 Z " fill="#96BB4D" transform="translate(242,163)"/>
<path d="M0 0 C1.9375 2 1.9375 2 3 4 C1.845 3.7525 0.69 3.505 -0.5 3.25 C-5.51960406 2.5777316 -8.81096617 4.40413595 -13 7 C-13.33 6.01 -13.66 5.02 -14 4 C-13.01 3.67 -12.02 3.34 -11 3 C-10.67 2.34 -10.34 1.68 -10 1 C-6.41996227 -0.19334591 -3.75684104 -0.33543224 0 0 Z " fill="#EBF7D6" transform="translate(240,77)"/>
<path d="M0 0 C0.66 0.33 1.32 0.66 2 1 C1.01 2.485 1.01 2.485 0 4 C0.66 4.33 1.32 4.66 2 5 C0.35 6.32 -1.3 7.64 -3 9 C-3.33 8.34 -3.66 7.68 -4 7 C-5.32 7.99 -6.64 8.98 -8 10 C-8.66 9.67 -9.32 9.34 -10 9 C-6.7 6.03 -3.4 3.06 0 0 Z " fill="#E2F1C2" transform="translate(256,193)"/>
<path d="M0 0 C3.2910841 3.60957611 4.54663921 6.12637153 5 11 C3.35 10.67 1.7 10.34 0 10 C0 6 0 6 1 3 C0.34 3 -0.32 3 -1 3 C-0.67 2.01 -0.34 1.02 0 0 Z " fill="#8FBB41" transform="translate(364,156)"/>
<path d="M0 0 C-2.27399629 2.06405265 -3.55826412 2.95864307 -6.65722656 3.2487793 C-7.64174805 3.19117432 -8.62626953 3.13356934 -9.640625 3.07421875 C-10.71054688 3.01943359 -11.78046875 2.96464844 -12.8828125 2.90820312 C-14.54957031 2.79895508 -14.54957031 2.79895508 -16.25 2.6875 C-17.37664062 2.62626953 -18.50328125 2.56503906 -19.6640625 2.50195312 C-22.44383733 2.34882994 -25.22192387 2.18099971 -28 2 C-28 1.67 -28 1.34 -28 1 C-24.83350749 0.82991412 -21.6667838 0.66456601 -18.5 0.5 C-17.1696875 0.42845703 -17.1696875 0.42845703 -15.8125 0.35546875 C-10.53287287 0.08372324 -5.28655326 -0.04940704 0 0 Z " fill="#E0F2C1" transform="translate(182,242)"/>
<path d="M0 0 C0.33 0 0.66 0 1 0 C1.66 7.26 2.32 14.52 3 22 C2.34 21.67 1.68 21.34 1 21 C0.40234375 18.48828125 0.40234375 18.48828125 -0.0625 15.3125 C-0.21847656 14.27738281 -0.37445313 13.24226562 -0.53515625 12.17578125 C-0.68855469 11.12777344 -0.84195313 10.07976562 -1 9 C-1.33837891 7.41251953 -1.33837891 7.41251953 -1.68359375 5.79296875 C-2 3 -2 3 0 0 Z " fill="#F0FADD" transform="translate(102,181)"/>
<path d="M0 0 C0 3 0 3 -2 6 C-4.3828125 6.73046875 -4.3828125 6.73046875 -7.125 7.1875 C-8.49011719 7.42533203 -8.49011719 7.42533203 -9.8828125 7.66796875 C-10.58148438 7.77753906 -11.28015625 7.88710937 -12 8 C-11.67 7.34 -11.34 6.68 -11 6 C-10.34 6 -9.68 6 -9 6 C-9 5.34 -9 4.68 -9 4 C-6.09432866 1.98217268 -3.48330216 0.64505596 0 0 Z " fill="#92BA44" transform="translate(201,104)"/>
<path d="M0 0 C0.66 0.33 1.32 0.66 2 1 C1.29875 1.61875 0.5975 2.2375 -0.125 2.875 C-3.40949776 6.1033525 -5.45313282 9.98521368 -7.66796875 13.98828125 C-8.10753906 14.65214844 -8.54710938 15.31601563 -9 16 C-9.66 16 -10.32 16 -11 16 C-9.69891569 11.12450824 -7.82914252 8.2765221 -4.375 4.625 C-3.14910156 3.31402344 -3.14910156 3.31402344 -1.8984375 1.9765625 C-1.27195312 1.32429687 -0.64546875 0.67203125 0 0 Z " fill="#90B642" transform="translate(117,170)"/>
<path d="M0 0 C0.25 2.75 0.25 2.75 0 6 C-2 8.375 -2 8.375 -4 10 C-5 9 -5 9 -5.25 6.125 C-5 3 -5 3 -3.625 1.125 C-2 0 -2 0 0 0 Z " fill="#87AE37" transform="translate(110,170)"/>
<path d="M0 0 C0.33 0.99 0.66 1.98 1 3 C-3.75 6 -3.75 6 -6 6 C-6 6.99 -6 7.98 -6 9 C-7.96466413 10.06775224 -9.96855359 11.06553465 -12 12 C-12.66 11.67 -13.32 11.34 -14 11 C-9.38 7.37 -4.76 3.74 0 0 Z " fill="#9ABC50" transform="translate(257,151)"/>
<path d="M0 0 C0.66 0 1.32 0 2 0 C2 0.66 2 1.32 2 2 C1.34 2 0.68 2 0 2 C0 1.34 0 0.68 0 0 Z M-3 2 C-1.35 2.33 0.3 2.66 2 3 C0.35 4.98 -1.3 6.96 -3 9 C-4.32 8.34 -5.64 7.68 -7 7 C-6.34 6.67 -5.68 6.34 -5 6 C-3.86649466 3.98330173 -3.86649466 3.98330173 -3 2 Z " fill="#90BC3C" transform="translate(253,205)"/>
<path d="M0 0 C1.32 0.66 2.64 1.32 4 2 C2.83709195 5.48872415 1.86032391 6.09976864 -1.0625 8.1875 C-1.79597656 8.71730469 -2.52945313 9.24710938 -3.28515625 9.79296875 C-3.85105469 10.19128906 -4.41695312 10.58960938 -5 11 C-4.67 9.02 -4.34 7.04 -4 5 C-3.01 5.33 -2.02 5.66 -1 6 C-0.67 4.02 -0.34 2.04 0 0 Z " fill="#94B94D" transform="translate(232,160)"/>
<path d="M0 0 C4.18423892 3.50897269 8.19588166 7.08060535 12 11 C10.35 11 8.7 11 7 11 C7 10.01 7 9.02 7 8 C6.21625 7.71125 5.4325 7.4225 4.625 7.125 C2 6 2 6 0 4 C0 2.68 0 1.36 0 0 Z " fill="#E9F7D1" transform="translate(116,223)"/>
<path d="M0 0 C0.66 0.33 1.32 0.66 2 1 C1.01 1.33 0.02 1.66 -1 2 C-1 2.66 -1 3.32 -1 4 C0.32 4.33 1.64 4.66 3 5 C-1.95 6.485 -1.95 6.485 -7 8 C-7 7.34 -7 6.68 -7 6 C-6.01 6 -5.02 6 -4 6 C-4 5.34 -4 4.68 -4 4 C-4.99 3.67 -5.98 3.34 -7 3 C-5.68 3 -4.36 3 -3 3 C-3 2.34 -3 1.68 -3 1 C-2.01 0.67 -1.02 0.34 0 0 Z " fill="#E5F3CA" transform="translate(183,203)"/>
<path d="M0 0 C0.33 0 0.66 0 1 0 C1 6.27 1 12.54 1 19 C-0.65 19.66 -2.3 20.32 -4 21 C-4.33 20.34 -4.66 19.68 -5 19 C-3.68 18.34 -2.36 17.68 -1 17 C-0.67 11.39 -0.34 5.78 0 0 Z " fill="#8EB540" transform="translate(191,180)"/>
<path d="M0 0 C4.43458973 1.3937282 6.87378374 3.60582235 10 7 C9.01 7.495 9.01 7.495 8 8 C8 7.34 8 6.68 8 6 C6.68 6 5.36 6 4 6 C3.67 5.34 3.34 4.68 3 4 C0.69 4 -1.62 4 -4 4 C-2.68 2.68 -1.36 1.36 0 0 Z " fill="#E5F5CE" transform="translate(236,94)"/>
<path d="M0 0 C0.66 0.33 1.32 0.66 2 1 C1.01 2.1446875 1.01 2.1446875 0 3.3125 C-2.29850538 5.84277939 -2.29850538 5.84277939 -2 9 C-4.31 9 -6.62 9 -9 9 C-6 6 -3 3 0 0 Z " fill="#E8F4D2" transform="translate(240,207)"/>
<path d="M0 0 C-0.33 0.66 -0.66 1.32 -1 2 C-1.66 2 -2.32 2 -3 2 C-3 2.66 -3 3.32 -3 4 C-4.96147874 5.38938077 -6.96166576 6.7260411 -9 8 C-8.64005447 5.3364031 -8.28838998 3.41816548 -6.75 1.1875 C-4.41988723 -0.39364795 -2.75498245 -0.22337696 0 0 Z " fill="#94B947" transform="translate(227,171)"/>
<path d="M0 0 C1.32 0 2.64 0 4 0 C5.84827434 3.6125362 7.55049545 7.2089881 9 11 C8.01 11 7.02 11 6 11 C5.566875 9.9275 5.13375 8.855 4.6875 7.75 C3.44678487 4.83727354 2.04929621 2.43963834 0 0 Z " fill="#94B849" transform="translate(328,169)"/>
<path d="M0 0 C3.81530628 3.27026253 6.40632712 7.23853564 8 12 C7.67 12.99 7.34 13.98 7 15 C6.66226562 14.37351563 6.32453125 13.74703125 5.9765625 13.1015625 C5.53054688 12.28429687 5.08453125 11.46703125 4.625 10.625 C4.18414062 9.81289062 3.74328125 9.00078125 3.2890625 8.1640625 C2.0556107 5.89185698 2.0556107 5.89185698 0 4 C0 2.68 0 1.36 0 0 Z " fill="#BCDE84" transform="translate(364,172)"/>
<path d="M0 0 C3.057952 1.73559438 5.63379989 3.38472619 8 6 C6.35 6.66 4.7 7.32 3 8 C0 3.375 0 3.375 0 0 Z " fill="#91BB40" transform="translate(355,168)"/>
<path d="M0 0 C1.32 0.33 2.64 0.66 4 1 C0.04 3.64 -3.92 6.28 -8 9 C-8.33 8.01 -8.66 7.02 -9 6 C-8.01 6 -7.02 6 -6 6 C-6 5.34 -6 4.68 -6 4 C-3 2 -3 2 0 2 C0 1.34 0 0.68 0 0 Z " fill="#ECF9D8" transform="translate(219,87)"/>
<path d="M0 0 C1.08667969 0.01804688 2.17335937 0.03609375 3.29296875 0.0546875 C4.54013672 0.08949219 4.54013672 0.08949219 5.8125 0.125 C4.69921875 1.64453125 4.69921875 1.64453125 2.8125 3.125 C-0.10546875 3.19921875 -0.10546875 3.19921875 -3.375 2.8125 C-4.46167969 2.69261719 -5.54835937 2.57273438 -6.66796875 2.44921875 C-7.49941406 2.34222656 -8.33085937 2.23523438 -9.1875 2.125 C-5.66070901 -0.22619399 -4.15870515 -0.08943452 0 0 Z " fill="#92B64B" transform="translate(143.1875,160.875)"/>
<path d="M0 0 C2.6875 0.875 2.6875 0.875 5 2 C3.68 3.32 2.36 4.64 1 6 C-0.32 5.34 -1.64 4.68 -3 4 C-3 3.34 -3 2.68 -3 2 C-2.01 1.34 -1.02 0.68 0 0 Z " fill="#8AB53A" transform="translate(231,92)"/>
<path d="M0 0 C4.37859255 0.50522222 6.81651224 3.17827222 10 6 C9.34 6.66 8.68 7.32 8 8 C7.67 7.01 7.34 6.02 7 5 C6.01 5 5.02 5 4 5 C4 4.34 4 3.68 4 3 C2.02 3 0.04 3 -2 3 C-1.34 2.01 -0.68 1.02 0 0 Z " fill="#98BA4F" transform="translate(266,190)"/>
<path d="M0 0 C0.99 0 1.98 0 3 0 C4.38671875 1.53125 4.38671875 1.53125 5.6875 3.5 C6.12449219 4.1496875 6.56148438 4.799375 7.01171875 5.46875 C7.33785156 5.9740625 7.66398437 6.479375 8 7 C7.67 7.66 7.34 8.32 7 9 C5.82460004 8.07347299 4.65989423 7.13336613 3.5 6.1875 C2.52546875 5.40439453 2.52546875 5.40439453 1.53125 4.60546875 C0 3 0 3 0 0 Z " fill="#89B43A" transform="translate(361,174)"/>
<path d="M0 0 C1.32 1.32 2.64 2.64 4 4 C2.35 5.32 0.7 6.64 -1 8 C-1.99 6.68 -2.98 5.36 -4 4 C-2.68 2.68 -1.36 1.36 0 0 Z " fill="#E8F5D2" transform="translate(236,162)"/>
<path d="M0 0 C6.875 3.75 6.875 3.75 8 6 C6.02 6.33 4.04 6.66 2 7 C2 6.34 2 5.68 2 5 C1.34 5 0.68 5 0 5 C0 3.35 0 1.7 0 0 Z " fill="#8DB63C" transform="translate(210,143)"/>
<path d="M0 0 C0.66 0.99 1.32 1.98 2 3 C0.71283353 4.00578589 -0.57988658 5.00446798 -1.875 6 C-2.95394531 6.8353125 -2.95394531 6.8353125 -4.0546875 7.6875 C-6 9 -6 9 -8 9 C-7.34 7.68 -6.68 6.36 -6 5 C-5.01 5 -4.02 5 -3 5 C-2.690625 4.360625 -2.38125 3.72125 -2.0625 3.0625 C-1 1 -1 1 0 0 Z " fill="#92BA3D" transform="translate(225,98)"/>
<path d="M0 0 C0.66 0.33 1.32 0.66 2 1 C0.9375 3.4375 0.9375 3.4375 -1 6 C-4.6875 6.8125 -4.6875 6.8125 -8 7 C-5.42215154 4.35247996 -3.08351902 2.05567935 0 0 Z " fill="#E9F5D3" transform="translate(213,110)"/>
<path d="M0 0 C0.66 0.33 1.32 0.66 2 1 C-1.42388092 4.82669043 -4.00724943 6.72278474 -9 8 C-6.14723863 5.06799526 -3.34920216 2.35684596 0 0 Z " fill="#E5F4CE" transform="translate(229,216)"/>
<path d="M0 0 C0.80566406 0.00322266 1.61132812 0.00644531 2.44140625 0.00976562 C3.70404297 0.02233398 3.70404297 0.02233398 4.9921875 0.03515625 C5.84167969 0.03966797 6.69117188 0.04417969 7.56640625 0.04882812 C9.66669659 0.06062751 11.7669508 0.07856319 13.8671875 0.09765625 C13.8671875 0.42765625 13.8671875 0.75765625 13.8671875 1.09765625 C8.5871875 1.09765625 3.3071875 1.09765625 -2.1328125 1.09765625 C-2.1328125 1.75765625 -2.1328125 2.41765625 -2.1328125 3.09765625 C-3.4528125 2.43765625 -4.7728125 1.77765625 -6.1328125 1.09765625 C-3.8362755 -0.05061225 -2.54968083 -0.0179555 0 0 Z " fill="#A0B968" transform="translate(322.1328125,160.90234375)"/>
<path d="M0 0 C0.99 0.33 1.98 0.66 3 1 C1.02 4.63 -0.96 8.26 -3 12 C-4.25541557 8.23375329 -3.37061958 6.62811066 -2 3 C-1.34 3 -0.68 3 0 3 C0 2.01 0 1.02 0 0 Z " fill="#EBF7D4" transform="translate(111,154)"/>
<path d="M0 0 C2.0625 0.4375 2.0625 0.4375 4 1 C2.375 3 2.375 3 0 5 C-3.25 5.25 -3.25 5.25 -6 5 C-5.195625 4.360625 -4.39125 3.72125 -3.5625 3.0625 C-1.7249496 1.59396498 -1.7249496 1.59396498 0 0 Z " fill="#95BB44" transform="translate(270,142)"/>
<path d="M0 0 C0.99 0.33 1.98 0.66 3 1 C1.54634731 2.17249353 0.08692581 3.33783816 -1.375 4.5 C-2.18710938 5.1496875 -2.99921875 5.799375 -3.8359375 6.46875 C-6 8 -6 8 -8 8 C-8 7.34 -8 6.68 -8 6 C-7.34 6 -6.68 6 -6 6 C-6 5.34 -6 4.68 -6 4 C-5.01 4 -4.02 4 -3 4 C-2.67 3.01 -2.34 2.02 -2 1 C-1.34 0.67 -0.68 0.34 0 0 Z " fill="#8FB346" transform="translate(214,107)"/>
<path d="M0 0 C1.32 0.33 2.64 0.66 4 1 C1.36 2.98 -1.28 4.96 -4 7 C-3.6875 4.625 -3.6875 4.625 -3 2 C-2.01 1.34 -1.02 0.68 0 0 Z " fill="#94B943" transform="translate(356,225)"/>
<path d="M0 0 C1.65 0 3.3 0 5 0 C5.66 1.98 6.32 3.96 7 6 C2.32307692 4.52307692 2.32307692 4.52307692 0.6875 1.875 C0.460625 1.25625 0.23375 0.6375 0 0 Z " fill="#ECF8DD" transform="translate(293,204)"/>
<path d="M0 0 C-2.25 2.0625 -2.25 2.0625 -5 4 C-7.3125 3.75 -7.3125 3.75 -9 3 C-7 0 -7 0 -5.0625 -0.75 C-3 -1 -3 -1 0 0 Z " fill="#8DB538" transform="translate(282,174)"/>
<path d="M0 0 C1.32 0.66 2.64 1.32 4 2 C2.87926138 2.83905565 1.75325453 3.67107831 0.625 4.5 C-0.00148438 4.9640625 -0.62796875 5.428125 -1.2734375 5.90625 C-3 7 -3 7 -5 7 C-3.70700306 4.11562221 -2.34058637 2.12780579 0 0 Z " fill="#D9EEB6" transform="translate(118,166)"/>
<path d="M0 0 C3.3 0 6.6 0 10 0 C9 2 9 2 5.9375 3.125 C4.4834375 3.558125 4.4834375 3.558125 3 4 C2.67 3.01 2.34 2.02 2 1 C1.34 0.67 0.68 0.34 0 0 Z " fill="#91B04F" transform="translate(150,161)"/>
<path d="M0 0 C0.99 0.33 1.98 0.66 3 1 C2.01 1.495 2.01 1.495 1 2 C1 2.99 1 3.98 1 5 C-1.31 5.66 -3.62 6.32 -6 7 C-4.02 4.69 -2.04 2.38 0 0 Z " fill="#A2C159" transform="translate(123,143)"/>
<path d="M0 0 C1.65 0 3.3 0 5 0 C5 0.66 5 1.32 5 2 C6.32 2.33 7.64 2.66 9 3 C9.33 4.32 9.66 5.64 10 7 C8.33073546 6.02526874 6.66464358 5.04510211 5 4.0625 C4.071875 3.51722656 3.14375 2.97195312 2.1875 2.41015625 C1.465625 1.94480469 0.74375 1.47945312 0 1 C0 0.67 0 0.34 0 0 Z " fill="#E2F0C5" transform="translate(344,137)"/>
<path d="M0 0 C-0.57344937 2.86724686 -0.8614515 3.8614515 -3 6 C-5.125 5.625 -5.125 5.625 -7 5 C-2.25 0 -2.25 0 0 0 Z " fill="#F2FCDD" transform="translate(252,200)"/>
<path d="M0 0 C6.42857143 4.14285714 6.42857143 4.14285714 9 7 C5.26512223 6.5020163 3.18762365 6.12508244 0 4 C0 2.68 0 1.36 0 0 Z " fill="#94B947" transform="translate(219,149)"/>
<path d="M0 0 C9.59453303 2.89066059 9.59453303 2.89066059 13 6 C11.58194169 5.71517632 10.16559621 5.42181856 8.75 5.125 C7.96109375 4.96257812 7.1721875 4.80015625 6.359375 4.6328125 C4.03168856 4.00849925 2.10968048 3.15161458 0 2 C0 1.34 0 0.68 0 0 Z " fill="#98BA50" transform="translate(329,131)"/>
<path d="M0 0 C1.13732426 3.40401948 0.83989957 5.77456664 0.0625 9.25 C-0.13214844 10.14203125 -0.32679688 11.0340625 -0.52734375 11.953125 C-0.68332031 12.62859375 -0.83929688 13.3040625 -1 14 C-1.33 14 -1.66 14 -2 14 C-2.05389087 12.04196493 -2.09274217 10.08351091 -2.125 8.125 C-2.14820313 7.03445312 -2.17140625 5.94390625 -2.1953125 4.8203125 C-2 2 -2 2 0 0 Z " fill="#8FB442" transform="translate(179,118)"/>
<path d="M0 0 C0 0.99 0 1.98 0 3 C-3.13498292 4.85776765 -5.37471432 5.20140476 -9 5 C-2.87096774 0 -2.87096774 0 0 0 Z " fill="#9FC158" transform="translate(196,202)"/>
<path d="M0 0 C2.31 0.33 4.62 0.66 7 1 C2.58119757 3.94586829 0.32232661 4.0985616 -5 4 C-5 3.67 -5 3.34 -5 3 C-3.35 3 -1.7 3 0 3 C0 2.01 0 1.02 0 0 Z " fill="#8DB641" transform="translate(336,236)"/>
<path d="M0 0 C0 0.99 0 1.98 0 3 C-4.43076923 5.09230769 -4.43076923 5.09230769 -7.3125 4.625 C-7.869375 4.41875 -8.42625 4.2125 -9 4 C-2.25 0 -2.25 0 0 0 Z " fill="#E5F3CC" transform="translate(215,227)"/>
<path d="M0 0 C0.66 0.66 1.32 1.32 2 2 C-0.31 4.97 -2.62 7.94 -5 11 C-5.33 10.34 -5.66 9.68 -6 9 C-4.02 6.03 -2.04 3.06 0 0 Z " fill="#C0E185" transform="translate(112,172)"/>
<path d="M0 0 C-4.75 4.875 -4.75 4.875 -7 6 C-7 4.35 -7 2.7 -7 1 C-4.53721199 -0.231394 -2.7204945 -0.07159196 0 0 Z " fill="#ECF7D8" transform="translate(183,115)"/>
<path d="M0 0 C1.48280196 0.78483659 2.9611498 1.57809334 4.4375 2.375 C5.67306641 3.03628906 5.67306641 3.03628906 6.93359375 3.7109375 C9 5 9 5 10 7 C8.35 6.67 6.7 6.34 5 6 C5 5.34 5 4.68 5 4 C4.01 4 3.02 4 2 4 C2 3.34 2 2.68 2 2 C1.34 2 0.68 2 0 2 C0 1.34 0 0.68 0 0 Z " fill="#90B44A" transform="translate(247,85)"/>
<path d="M0 0 C1.16959987 0.97566112 2.33561177 1.955625 3.5 2.9375 C4.1496875 3.48277344 4.799375 4.02804688 5.46875 4.58984375 C5.9740625 5.05519531 6.479375 5.52054688 7 6 C7 6.33 7 6.66 7 7 C2.25 7.125 2.25 7.125 0 6 C0 4.02 0 2.04 0 0 Z " fill="#96BE48" transform="translate(144,202)"/>
<path d="M0 0 C0.66 0.33 1.32 0.66 2 1 C1.01 2.485 1.01 2.485 0 4 C0.99 4.33 1.98 4.66 3 5 C0.39417629 5.93065133 -0.64198224 6.14917407 -3.25 5.0625 C-3.8275 4.711875 -4.405 4.36125 -5 4 C-3.35 2.68 -1.7 1.36 0 0 Z " fill="#E3F2C9" transform="translate(288,169)"/>
<path d="M0 0 C0.66 0.33 1.32 0.66 2 1 C1.1875 3.4375 1.1875 3.4375 0 6 C-0.99 6.33 -1.98 6.66 -3 7 C-3.33 5.68 -3.66 4.36 -4 3 C-2.68 2.01 -1.36 1.02 0 0 Z " fill="#E9F5D7" transform="translate(197,121)"/>
<path d="M0 0 C3 1 3 1 5 4 C5.125 6.6875 5.125 6.6875 5 9 C4.67 8.01 4.34 7.02 4 6 C3.01 5.67 2.02 5.34 1 5 C0.67 3.35 0.34 1.7 0 0 Z " fill="#94B847" transform="translate(293,117)"/>
<path d="M0 0 C2.31 0.66 4.62 1.32 7 2 C7.33 3.32 7.66 4.64 8 6 C1.125 2.25 1.125 2.25 0 0 Z " fill="#9BBD51" transform="translate(120,227)"/>
<path d="M0 0 C0.33 0.66 0.66 1.32 1 2 C-0.32 3.65 -1.64 5.3 -3 7 C-3.99 6.67 -4.98 6.34 -6 6 C-4.02 4.02 -2.04 2.04 0 0 Z " fill="#94BB4A" transform="translate(222,181)"/>
<path d="M0 0 C-0.6875 1.9375 -0.6875 1.9375 -2 4 C-4.625 4.75 -4.625 4.75 -7 5 C-2.25 0 -2.25 0 0 0 Z " fill="#EFF9DD" transform="translate(155,165)"/>
<path d="M0 0 C2.31 0.66 4.62 1.32 7 2 C6.67 3.32 6.34 4.64 6 6 C3.97945196 4.35830472 1.97956942 2.69088222 0 1 C0 0.67 0 0.34 0 0 Z " fill="#E8F5CF" transform="translate(223,151)"/>
<path d="M0 0 C2.97 0.495 2.97 0.495 6 1 C6 1.66 6 2.32 6 3 C4.02 3.33 2.04 3.66 0 4 C0 2.68 0 1.36 0 0 Z " fill="#93B545" transform="translate(282,126)"/>
</svg>
