<?xml version="1.0" encoding="UTF-8"?>
<svg version="1.1" xmlns="http://www.w3.org/2000/svg" width="800" height="494">

<path d="M0 0 C1 1 1 1 1.12025452 3.77772522 C1.11803391 5.01904709 1.11581329 6.26036896 1.11352539 7.53930664 C1.11367142 8.22220261 1.11381744 8.90509857 1.1139679 9.60868835 C1.11326876 11.87587614 1.1054764 14.14298274 1.09765625 16.41015625 C1.09579207 17.97814387 1.09436817 19.54613207 1.09336853 21.11412048 C1.08954334 25.24876503 1.07971306 29.38337466 1.06866455 33.51800537 C1.05845044 37.73400398 1.05387091 41.95000822 1.04882812 46.16601562 C1.03809079 54.44402647 1.02101436 62.7220089 1 71 C-1.05934069 70.86317963 -3.11826691 70.72011289 -5.17700195 70.57446289 C-6.89691093 70.4559774 -6.89691093 70.4559774 -8.65156555 70.33509827 C-13.32587877 69.86731122 -17.67022526 68.67271602 -22.1875 67.4375 C-34.7909184 64.3018216 -47.09243238 64.3424406 -60 65 C-60.82935059 65.04012207 -61.65870117 65.08024414 -62.51318359 65.12158203 C-73.99616045 65.78808165 -84.27303431 68.99749614 -95 73 C-95.69367676 73.2467749 -96.38735352 73.4935498 -97.10205078 73.74780273 C-102.237632 75.59823846 -106.77521778 78.02802072 -111.484375 80.79296875 C-114 82 -114 82 -118 82 C-118.165 82.680625 -118.33 83.36125 -118.5 84.0625 C-120.68991933 88.35109203 -124.12000999 91.19509056 -128 94 C-128.66 94 -129.32 94 -130 94 C-130.25007813 94.55171875 -130.50015625 95.1034375 -130.7578125 95.671875 C-132.22392026 98.41967445 -133.99514785 100.7671764 -135.875 103.25 C-139.14898773 107.6847652 -141.7295438 111.98607588 -144 117 C-144.66 117 -145.32 117 -146 117 C-146 120.3 -146 123.6 -146 127 C-145.67 126.01 -145.34 125.02 -145 124 C-144.01 123.505 -144.01 123.505 -143 123 C-142.525625 121.88625 -142.05125 120.7725 -141.5625 119.625 C-140.14690141 116.34081128 -139.36523325 115.36523325 -137 113 C-136.7525 112.0925 -136.505 111.185 -136.25 110.25 C-134.09445125 104.64557325 -129.05861383 100.18505315 -124 97 C-123.34 97 -122.68 97 -122 97 C-122 96.34 -122 95.68 -122 95 C-115.79237208 89.08714771 -104.76035066 82 -96 82 C-96 81.34 -96 80.68 -96 80 C-93.03 79.505 -93.03 79.505 -90 79 C-90 78.34 -90 77.68 -90 77 C-88.27308204 76.53326542 -86.5432595 76.07728127 -84.8125 75.625 C-83.84957031 75.36976563 -82.88664062 75.11453125 -81.89453125 74.8515625 C-71.12519674 72.49678324 -60.80170897 71.70212822 -49.82250977 71.79418945 C-47.5410665 71.81267365 -45.26002673 71.81469675 -42.97851562 71.81445312 C-30.91256 71.85473067 -30.91256 71.85473067 -25 73 C-27 76 -27 76 -29.1640625 76.73046875 C-30.38222656 76.95669922 -30.38222656 76.95669922 -31.625 77.1875 C-32.85089844 77.42533203 -32.85089844 77.42533203 -34.1015625 77.66796875 C-34.72804688 77.77753906 -35.35453125 77.88710938 -36 78 C-36 78.66 -36 79.32 -36 80 C-39.45730521 82.44045073 -42.96678237 83.78065514 -47 85 C-47 85.66 -47 86.32 -47 87 C-47.66 87 -48.32 87 -49 87 C-49.0928125 88.0828125 -49.0928125 88.0828125 -49.1875 89.1875 C-50.24654271 92.85341706 -52.29599272 94.36194411 -55 97 C-55.71162443 98.64797236 -56.39031953 100.31165408 -57 102 C-57.99 102.495 -57.99 102.495 -59 103 C-65.78083062 116.6411241 -67.79747629 137.18966894 -63.6875 152.03125 C-60.19865688 162.02202802 -55.15743561 170.41429597 -47.3203125 177.58984375 C-46 179 -46 179 -46 181 C-45.01 181.0825 -44.02 181.165 -43 181.25 C-39.20388971 181.7725415 -36.30663225 183.19210794 -32.9921875 185.0625 C-16.05067241 193.03497769 10.09907085 185.98938056 26.79296875 180.18359375 C29.54904437 179.16643064 32.28071936 178.11126911 35 177 C35 176.34 35 175.68 35 175 C35.95712891 174.72736328 35.95712891 174.72736328 36.93359375 174.44921875 C38.17302734 174.07216797 38.17302734 174.07216797 39.4375 173.6875 C40.26121094 173.44386719 41.08492187 173.20023438 41.93359375 172.94921875 C42.61550781 172.63597656 43.29742187 172.32273437 44 172 C44.33 171.01 44.66 170.02 45 169 C46.85546875 167.9375 46.85546875 167.9375 49.1875 167 C52.01357443 165.82996918 54.70546278 164.64085531 57.4375 163.25 C60 162 60 162 62 162 C62.28875 161.38125 62.5775 160.7625 62.875 160.125 C65.07330995 155.97263676 67.70653007 155.30934602 71.9296875 153.9765625 C74.53366055 152.74827333 76.01950651 151.07951816 78 149 C79.52003997 147.72378897 81.06199875 146.47321837 82.625 145.25 C83.40101563 144.63640625 84.17703125 144.0228125 84.9765625 143.390625 C87 142 87 142 89 142 C89 141.34 89 140.68 89 140 C90.44458008 138.74267578 90.44458008 138.74267578 92.45703125 137.3203125 C97.01941529 134.01080071 101.35393929 130.47661882 105.6875 126.875 C117.31590909 117.24090909 117.31590909 117.24090909 121.375 114.25 C123.70555365 112.25238259 125.52766837 110.27270649 127.5 107.9375 C130.11456939 104.86353772 132.47894574 102.9984362 136 101 C137.33895632 99.33784732 138.67130142 97.67036393 140 96 C141.91829288 94.24478348 143.89262107 92.56589124 145.87109375 90.87890625 C147.9536946 89.0408677 149.88092387 87.12003653 151.8125 85.125 C155.71494641 81.16133874 159.93531551 77.70589155 164.26953125 74.2265625 C166.78834575 72.17259359 169.21448058 70.05414321 171.625 67.875 C184.41914951 56.45165222 184.41914951 56.45165222 192 55 C192 54.34 192 53.68 192 53 C193.86328125 51.37890625 193.86328125 51.37890625 196.3125 49.5625 C199.63908504 47.09023023 199.63908504 47.09023023 202.66796875 44.27734375 C204 43 204 43 206 43 C206 42.34 206 41.68 206 41 C207.11375 40.690625 208.2275 40.38125 209.375 40.0625 C213.32793861 38.61562755 215.70015463 36.56345265 218.6875 33.625 C224.479904 28.1284928 231.7639849 24.21964339 239.88671875 23.87890625 C240.58410156 23.91886719 241.28148437 23.95882812 242 24 C242.19335938 23.40960938 242.38671875 22.81921875 242.5859375 22.2109375 C244.58659019 19.08284518 247.33135372 18.05776323 250.625 16.625 C251.28798096 16.32682373 251.95096191 16.02864746 252.6340332 15.72143555 C259.96309695 12.47869245 267.45101107 9.68182518 275 7 C276.08539062 6.60683594 277.17078125 6.21367187 278.2890625 5.80859375 C290.20102944 1.63786631 301.34903335 0.67393897 313.86889648 0.73925781 C316.29761995 0.74993459 318.72559643 0.7393335 321.15429688 0.7265625 C337.20574747 0.71195495 352.14139861 2.59543044 367 9 C369.01998815 9.54481008 371.04093297 10.08607803 373.0625 10.625 C381.04492055 13.01329614 387.22210749 17.31073864 394 22 C395.79053896 23.14759475 397.58202926 24.29370832 399.375 25.4375 C401.5234375 26.80859375 401.5234375 26.80859375 403 28 C403 28.66 403 29.32 403 30 C403.54011719 30.06058594 404.08023438 30.12117188 404.63671875 30.18359375 C408.02558185 31.35429191 410.25878701 33.6394477 412.8125 36.0625 C413.616875 36.81503052 413.616875 36.81503052 414.4375 37.58276367 C417.8420827 40.80444279 421.07973439 44.09972311 424.07421875 47.7109375 C425.68094892 49.62076281 427.3281733 51.45533436 429.01953125 53.2890625 C430.11738326 54.50503162 431.21503808 55.7211788 432.3125 56.9375 C432.84101562 57.49864502 433.36953125 58.05979004 433.9140625 58.63793945 C437.86730708 63.08853182 439.1901921 67.13492676 440 73 C440.66 73 441.32 73 442 73 C445.77012373 79.23611661 448.6005919 84.73059449 449.578125 92.00390625 C449.85703963 94.22077753 449.85703963 94.22077753 452 96 C460.07126944 113.15144757 458.40684817 137.51398538 455.6875 155.8125 C455.56987305 156.60543457 455.45224609 157.39836914 455.33105469 158.21533203 C454.42496779 163.68313777 452.88825754 168.79396969 451 174 C450.34 174 449.68 174 449 174 C449.04769531 174.71285156 449.09539063 175.42570313 449.14453125 176.16015625 C448.97767181 179.43871871 448.10567544 181.4881971 446.6875 184.4375 C446.00300781 185.87222656 446.00300781 185.87222656 445.3046875 187.3359375 C444.87414062 188.21507812 444.44359375 189.09421875 444 190 C443.443125 191.175625 442.88625 192.35125 442.3125 193.5625 C441 196 441 196 439 198 C438.649375 198.969375 438.29875 199.93875 437.9375 200.9375 C435.59506056 206.69599697 431.24987847 211.5404501 427 216 C426.34 216 425.68 216 425 216 C424.773125 216.598125 424.54625 217.19625 424.3125 217.8125 C422.63932418 220.60112637 420.82982147 221.45033586 418 223 C417.278125 223.556875 416.55625 224.11375 415.8125 224.6875 C414 226 414 226 412 226 C411.67 226.99 411.34 227.98 411 229 C409.21484375 230.17578125 409.21484375 230.17578125 406.9375 231.3125 C403.80999762 232.95211392 401.09741102 234.63125465 398.375 236.875 C387.63189399 245.17843652 373.08718917 249.90107293 359.94921875 252.56640625 C357.78705226 253.00822518 357.78705226 253.00822518 354.9375 254.0625 C348.62660227 256.0766163 342.04070662 256.16536748 335.46875 256.203125 C334.67456665 256.20882507 333.8803833 256.21452515 333.06213379 256.22039795 C331.38811549 256.2297878 329.71407921 256.23635779 328.04003906 256.24023438 C325.53415811 256.24986867 323.02912426 256.28091986 320.5234375 256.3125 C306.91763959 256.40264134 294.3035492 254.69664152 281.3125 250.4375 C280.66345703 250.22931641 280.01441406 250.02113281 279.34570312 249.80664062 C276.60499461 248.91723471 273.91511555 247.9654442 271.24609375 246.87890625 C268.88695636 245.86142004 268.88695636 245.86142004 265.75 245.5 C264.8425 245.335 263.935 245.17 263 245 C262.67 244.34 262.34 243.68 262 243 C259.86754051 241.94841627 257.69224959 240.98296377 255.5 240.0625 C254.86215576 239.79308594 254.22431152 239.52367187 253.56713867 239.24609375 C250.18850376 237.83772387 246.81348027 236.56496121 243.3125 235.5 C237.81961724 233.78605538 232.97457601 230.84018528 228 228 C227.34 227.67 226.68 227.34 226 227 C226 226.01 226 225.02 226 224 C225.28070313 223.89945313 224.56140625 223.79890625 223.8203125 223.6953125 C220.63702993 222.9105143 218.59920975 221.68842917 215.875 219.875 C211.07704458 216.70886953 206.22209472 213.66578152 201.3125 210.67578125 C198.97151908 208.97936096 197.68341834 207.31768077 196 205 C194.36755226 204.10048798 192.73311783 203.20427231 191.0859375 202.33203125 C188.45585999 200.65252483 186.33524842 198.63638351 184.0625 196.5 C179.89332955 192.62273494 176.12688658 190.3866541 171 188 C167.68747521 185.59841952 167.11387957 184.62633766 166.375 180.5625 C167.05557915 176.68319887 167.9930581 175.40619069 171.15234375 173.11328125 C173.72141173 171.56532274 176.40138826 170.31103733 179.11328125 169.03515625 C181.91028186 167.50057 183.85088452 165.32820844 186 163 C189.62068966 160 189.62068966 160 192 160 C192 159.01 192 158.02 192 157 C193.39244895 156.04905925 194.79326527 155.10840632 196.23046875 154.2265625 C198.19481321 152.86496391 199.72234193 151.34984314 201.375 149.625 C204.44461951 146.44599538 207.71365384 143.83402033 211.30078125 141.26171875 C213.12905283 139.96839401 213.12905283 139.96839401 215 138 C218.78187879 138.29856938 221.26487051 139.3661716 224 142 C224 142.99 224 143.98 224 145 C224.680625 145.04125 225.36125 145.0825 226.0625 145.125 C229.67073471 146.19979332 231.43202367 148.01214584 234.16796875 150.515625 C235.98334855 151.98650842 237.52000118 152.78956148 239.6875 153.625 C243.02890259 155.0119973 244.61682546 156.35202829 247 159 C247.66 159.33 248.32 159.66 249 160 C249 160.66 249 161.32 249 162 C250.7015625 162.433125 250.7015625 162.433125 252.4375 162.875 C253.613125 163.24625 254.78875 163.6175 256 164 C256.33 164.66 256.66 165.32 257 166 C258.71991436 166.87438599 260.47695248 167.67660661 262.25 168.4375 C265.14587909 169.68585869 267.85887618 170.91320452 270.546875 172.56640625 C273.03828019 174.02237075 275.21889573 174.76996013 278 175.5 C281.77152831 176.56962103 284.69650983 177.85719557 288 180 C290.30950463 181.06704961 292.64665911 182.03097728 295 183 C295 183.66 295 184.32 295 185 C304.81865286 187.10671144 314.2733684 187.23997314 324.25 187.125 C325.78515035 187.11494089 327.32030715 187.10582027 328.85546875 187.09765625 C332.57044927 187.07589619 336.28518161 187.04153134 340 187 C340 186.34 340 185.68 340 185 C341.65 185 343.3 185 345 185 C345 184.34 345 183.68 345 183 C345.969375 182.525625 346.93875 182.05125 347.9375 181.5625 C358.35825996 175.60174075 365.51519171 165.78705441 369.14672852 154.57348633 C370.56829615 148.61998546 370.63109848 142.7390741 370.57641602 136.65478516 C370.56250882 134.50136536 370.59679929 132.35227736 370.63476562 130.19921875 C370.67641105 122.1987081 369.71254322 115.71651619 366.07397461 108.43554688 C365 106 365 106 365 102 C364.40445313 101.74347656 363.80890625 101.48695313 363.1953125 101.22265625 C360.78760564 99.88170919 359.59394364 98.57538217 357.875 96.4375 C349.06126667 86.1950141 340.44379472 80.80151384 328 76 C329 74 329 74 332 73 C333.34844205 72.90004783 334.70114336 72.8518277 336.05322266 72.83886719 C336.86481842 72.82925964 337.67641418 72.8196521 338.51260376 72.80975342 C339.38758514 72.80550354 340.26256653 72.80125366 341.1640625 72.796875 C342.52402847 72.78832489 342.52402847 72.78832489 343.91146851 72.77960205 C345.83305699 72.77015307 347.75466168 72.76361847 349.67626953 72.75976562 C352.59306855 72.75010575 355.50914897 72.71910055 358.42578125 72.6875 C360.29687084 72.68096495 362.16796544 72.67571645 364.0390625 72.671875 C364.9018985 72.6595282 365.7647345 72.6471814 366.65371704 72.63446045 C371.90487531 72.65343586 376.19532655 73.44605158 381.11631775 75.29768372 C383.36293531 76.13531761 385.57214734 76.56752393 387.9375 76.9375 C393.27841745 77.92748314 398.02914534 79.86127934 403 82 C404.6650558 82.67067982 406.33130425 83.33842859 408 84 C408 84.66 408 85.32 408 86 C408.515625 86.0825 409.03125 86.165 409.5625 86.25 C413.04455732 87.32140225 415.87200885 89.13523605 419 91 C419 91.66 419 92.32 419 93 C419.598125 93.103125 420.19625 93.20625 420.8125 93.3125 C423.35431617 94.11135651 424.17376486 95.10071545 426 97 C426.763125 97.433125 427.52625 97.86625 428.3125 98.3125 C434.09982775 101.94640347 437.26582121 106.10037969 440.0703125 112.265625 C440.92761919 114.17038358 440.92761919 114.17038358 443 115.4375 C445.92036402 117.71903439 446.79480859 120.65813431 448.16796875 124.0390625 C448.84102364 125.96593756 448.84102364 125.96593756 450 127 C449.8290253 118.10931584 445.34497302 110.14208144 439 104 C437.81642114 101.36982476 436.91215621 98.73646863 436 96 C434.68819655 95.29190825 433.35073458 94.63066498 432 94 C430.65364825 92.93737248 429.34178204 91.82998752 428.0625 90.6875 C427.36382813 90.06875 426.66515625 89.45 425.9453125 88.8125 C424 87 424 87 421.4375 84.1875 C418.43444329 81.49244911 415.8708387 81.01864176 412 80 C406.31578947 76.63157895 406.31578947 76.63157895 405 74 C402.45808722 73.12381416 402.45808722 73.12381416 399.5 72.4375 C394.09262436 71.09262436 394.09262436 71.09262436 393 70 C390.06430609 69.45820694 387.135937 68.96133561 384.1875 68.5 C382.55575237 68.24107383 380.92423291 67.98070483 379.29296875 67.71875 C378.20278442 67.54762695 378.20278442 67.54762695 377.09057617 67.37304688 C375 67 375 67 373.20483398 66.47436523 C369.96674089 65.77769655 366.72850888 65.75639294 363.4296875 65.69140625 C362.68373322 65.67632523 361.93777893 65.6612442 361.16921997 65.64570618 C358.73777973 65.60577049 356.30669719 65.58078657 353.875 65.5625 C353.04919434 65.55599426 352.22338867 65.54948853 351.37255859 65.54278564 C335.6459956 65.48596562 320.07269654 67.01081913 305.37109375 73.08642578 C302.75589287 74.09405363 300.77798788 74.15874216 298 74 C298 74.66 298 75.32 298 76 C297.21753906 76.42152344 296.43507813 76.84304688 295.62890625 77.27734375 C294.11103516 78.09912109 294.11103516 78.09912109 292.5625 78.9375 C291.55316406 79.48277344 290.54382813 80.02804687 289.50390625 80.58984375 C287.13329507 81.77699468 287.13329507 81.77699468 286 83 C283.32941149 83.14115161 280.67567762 83.04247107 278 83 C278 83.66 278 84.32 278 85 C277.01 85 276.02 85 275 85 C274.67 85.99 274.34 86.98 274 88 C271.4375 89.4375 271.4375 89.4375 268 91 C262.4190713 93.65813305 257.1992141 96.66003377 252 100 C247.24137931 103 247.24137931 103 245 103 C244.78085937 103.57492187 244.56171875 104.14984375 244.3359375 104.7421875 C242.57652499 107.71569754 240.44061448 109.13972759 237.625 111.125 C236.66851562 111.80820312 235.71203125 112.49140625 234.7265625 113.1953125 C232 115 232 115 229.7109375 116.0546875 C227.64170643 116.94581443 227.64170643 116.94581443 227 120 C225.34632969 120.69828128 223.67667436 121.35891863 222 122 C220.09175737 123.30690567 218.21735261 124.66424065 216.375 126.0625 C211.31646932 129.89451023 211.31646932 129.89451023 208 131 C207.67 131.99 207.34 132.98 207 134 C205.2578125 135.5 205.2578125 135.5 203.125 137 C200.5108258 138.85210866 198.24952486 140.72527037 196 143 C193.08846538 144.86636835 190.11491708 146.50022511 187 148 C187 148.66 187 149.32 187 150 C185.13671875 151.69140625 185.13671875 151.69140625 182.6875 153.5625 C181.88699219 154.18253906 181.08648437 154.80257812 180.26171875 155.44140625 C178 157 178 157 175 158 C174.31879597 159.32596504 173.65399443 160.66040547 173 162 C171.23046875 163.74609375 171.23046875 163.74609375 169.1875 165.4375 C166.71921825 167.51228756 164.38543539 169.57874007 162.1875 171.9375 C160 174 160 174 157 174 C156.67 174.99 156.34 175.98 156 177 C154.68 177 153.36 177 152 177 C151.814375 177.70125 151.62875 178.4025 151.4375 179.125 C149.47932486 183.04135028 146.59323769 185.5338864 143 188 C142.34 188 141.68 188 141 188 C141 188.66 141 189.32 141 190 C139.26451831 191.44526736 137.46024037 192.8087222 135.625 194.125 C134.62726563 194.84945312 133.62953125 195.57390625 132.6015625 196.3203125 C130 198 130 198 128 198 C127.773125 198.5775 127.54625 199.155 127.3125 199.75 C125.29300878 203.21198496 122.64423681 205.54326755 118.75 206.625 C118.1725 206.74875 117.595 206.8725 117 207 C116.67 207.66 116.34 208.32 116 209 C114.28139613 209.72710164 112.56147249 210.45140932 110.83203125 211.15234375 C108.20540371 212.36764903 106.20154314 214.1371558 104 216 C101.19173565 217.93068174 98.37853616 219.77841786 95.4375 221.5 C92.90791958 222.97953622 92.90791958 222.97953622 90.5 225.0625 C87.97405046 227.02011089 85.95652701 227.83820981 83 229 C80.69840582 230.10454756 78.40739443 231.23130564 76.125 232.375 C75.19300781 232.84135864 75.19300781 232.84135864 74.2421875 233.31713867 C71.1065319 234.89690634 68.01848774 236.51900392 65 238.3125 C60.33933096 240.93412633 56.36809204 242.31577012 51 242 C51 242.66 51 243.32 51 244 C42.50170541 246.77900436 34.96908052 248.65895285 26 248 C26 248.99 26 249.98 26 251 C13.88140612 256.21207031 1.14534748 256.45858549 -11.82470703 256.33618164 C-14.49672666 256.31252898 -17.16774518 256.31565516 -19.83984375 256.32226562 C-34.36138856 256.30087179 -48.07977216 255.02367242 -62.0625 250.8125 C-63.09906738 250.50207764 -64.13563477 250.19165527 -65.20361328 249.87182617 C-91.76828651 241.65219836 -115.82062667 224.10927086 -130 200 C-130.7425 199.2575 -130.7425 199.2575 -131.5 198.5 C-134.71605235 195.28394765 -136.40148402 191.23193343 -138.1171875 187.078125 C-139.1849645 184.56459685 -140.34552527 182.09986201 -141.5 179.625 C-144.7756269 172.40283466 -147.20031832 165.79570274 -147.7890625 157.84765625 C-147.90366143 155.90694865 -147.90366143 155.90694865 -149 154 C-150.72637105 142.29904067 -149.9925622 130.52606621 -149.5625 118.75 C-149.50376709 117.05133789 -149.50376709 117.05133789 -149.44384766 115.31835938 C-149.40179199 114.25939453 -149.35973633 113.20042969 -149.31640625 112.109375 C-149.27974854 111.14999023 -149.24309082 110.19060547 -149.20532227 109.20214844 C-149 107 -149 107 -148 106 C-147.68670507 104.27899475 -147.37857036 102.55686253 -147.09887695 100.83007812 C-145.77046089 92.67180002 -143.59239021 85.49716218 -140 78 C-139.34 78 -138.68 78 -138 78 C-137.86062012 77.41814941 -137.72124023 76.83629883 -137.57763672 76.23681641 C-135.8102284 69.39277793 -133.12034153 64.19212957 -128.875 58.625 C-128.39144043 57.98014648 -127.90788086 57.33529297 -127.40966797 56.67089844 C-116.70202991 42.56507003 -116.70202991 42.56507003 -109 38 C-107.77205449 36.83279158 -106.58438484 35.62194862 -105.4375 34.375 C-101.20301706 29.99477959 -96.47520861 26.51075046 -91.5390625 22.98046875 C-88.82386816 21.07696051 -88.82386816 21.07696051 -87 18 C-84.94140625 16.83203125 -84.94140625 16.83203125 -82.5625 15.8125 C-81.78003906 15.46832031 -80.99757813 15.12414062 -80.19140625 14.76953125 C-78 14 -78 14 -75 14 C-75 13.34 -75 12.68 -75 12 C-71.06858455 10.33212678 -67.10466931 9.16854409 -63 8 C-61.76765625 7.60941406 -60.5353125 7.21882812 -59.265625 6.81640625 C-39.83253451 0.67415292 -20.40466186 -1.43541642 0 0 Z " fill="#94B849" transform="translate(251,183)"/>
<path d="M0 0 C1.55126897 1.13279951 3.0926059 2.27929516 4.625 3.4375 C6.28771448 4.60979239 7.95445493 5.7763936 9.625 6.9375 C10.45 7.51757812 11.275 8.09765625 12.125 8.6953125 C18.67377411 13.39610015 18.67377411 13.39610015 25.625 17.4375 C25.625 18.0975 25.625 18.7575 25.625 19.4375 C26.140625 19.685 26.65625 19.9325 27.1875 20.1875 C36.46005155 24.94265464 36.46005155 24.94265464 37.625 28.4375 C39.35933657 28.99808477 39.35933657 28.99808477 41.625 29.4375 C48.08285877 31.74387813 48.08285877 31.74387813 50.484375 34.81640625 C52.8619285 37.7276077 55.14888306 39.22602905 58.375 41.125 C60.15691317 42.17688853 61.91747186 43.26872643 63.625 44.4375 C63.625 45.0975 63.625 45.7575 63.625 46.4375 C64.800625 46.7159375 64.800625 46.7159375 66 47 C70.23546709 48.67958178 73.49824451 51.00513382 77.16015625 53.68359375 C80.3610382 55.96124192 83.68513655 57.9205751 87.125 59.8125 C90.0383497 61.7061773 92.20164834 63.95356454 94.625 66.4375 C97.03569036 68.54685406 98.98975864 70.19098843 101.98046875 71.3515625 C110.51639755 74.85671495 123.39307114 83.97364229 127.625 92.4375 C127.69450541 93.97773996 127.70952357 95.52084988 127.6875 97.0625 C127.67847656 97.87976563 127.66945313 98.69703125 127.66015625 99.5390625 C127.64275391 100.47878906 127.64275391 100.47878906 127.625 101.4375 C120.43932821 104.31176872 113.07485981 106.36296181 105.625 108.4375 C104.3978125 108.80488281 103.170625 109.17226562 101.90625 109.55078125 C98.65166439 110.43029426 95.97697799 110.60101112 92.625 110.4375 C92.58632813 109.40689453 92.58632813 109.40689453 92.546875 108.35546875 C92.49015625 107.45441406 92.4334375 106.55335938 92.375 105.625 C92.32859375 104.73167969 92.2821875 103.83835937 92.234375 102.91796875 C91.83326715 100.30936208 91.83326715 100.30936208 89.734375 98.671875 C87.6223265 97.35577122 87.6223265 97.35577122 85.125 96.5 C82.21395791 95.26280711 80.84713937 93.67187133 78.625 91.4375 C72.7585392 86.95138292 66.47870811 83.05531705 60.2265625 79.13671875 C57.84602735 77.58186471 55.61362563 75.9377768 53.375 74.1875 C49.9518483 71.54617925 46.66083803 69.97111845 42.625 68.4375 C40.625 67.4375 40.625 67.4375 39.25 65 C37.54631672 62.31342252 36.53846909 61.54260897 33.625 60.4375 C33.625 59.7775 33.625 59.1175 33.625 58.4375 C32.903125 58.17839844 32.18125 57.91929687 31.4375 57.65234375 C28.50757839 56.38678039 26.20329296 54.87329098 23.625 53 C18.8027299 49.51138897 14.18984396 46.5778246 8.625 44.4375 C4.85636247 42.93004499 4.85636247 42.93004499 3.74609375 40.56640625 C1.28380832 35.89063774 -3.67470049 33.0042665 -8.5625 31.375 C-12.0723862 31.45299747 -13.65319209 32.24493252 -16.375 34.4375 C-17.07437532 35.75397119 -17.74229133 37.08772151 -18.375 38.4375 C-20.63711151 40.53204769 -22.62100001 41.5359 -25.5 42.6875 C-31.33587847 45.06693543 -36.26711007 49.12243913 -41.2890625 52.86328125 C-44.90562879 55.53029246 -48.52269957 57.53336343 -52.58203125 59.45703125 C-54.92885977 60.74037321 -56.56628703 62.48965526 -58.375 64.4375 C-59.035 64.4375 -59.695 64.4375 -60.375 64.4375 C-60.601875 65.035625 -60.82875 65.63375 -61.0625 66.25 C-62.77478094 69.10380157 -64.38304733 70.00952259 -67.375 71.4375 C-70.6875 72.125 -70.6875 72.125 -73.375 72.4375 C-73.375 73.0975 -73.375 73.7575 -73.375 74.4375 C-74.035 74.4375 -74.695 74.4375 -75.375 74.4375 C-75.375 75.0975 -75.375 75.7575 -75.375 76.4375 C-77.03720581 77.44489746 -78.70520674 78.44272955 -80.375 79.4375 C-81.55638005 80.44126938 -82.72234725 81.46336919 -83.875 82.5 C-86.61406531 84.91369038 -88.96021158 86.12411984 -92.375 87.4375 C-93.78382688 88.58421955 -95.18952922 89.73577744 -96.55859375 90.9296875 C-106.80764249 99.4375 -106.80764249 99.4375 -110.375 99.4375 C-110.375 154.2175 -110.375 208.9975 -110.375 265.4375 C-112.025 266.0975 -113.675 266.7575 -115.375 267.4375 C-117.05708635 268.41133946 -118.72238161 269.41445052 -120.375 270.4375 C-126.90207581 274.4375 -126.90207581 274.4375 -130.375 274.4375 C-130.375 275.0975 -130.375 275.7575 -130.375 276.4375 C-131.93280332 277.11506882 -133.49650096 277.77909457 -135.0625 278.4375 C-135.93261719 278.80875 -136.80273438 279.18 -137.69921875 279.5625 C-140.44917914 280.46175712 -142.50864676 280.50469656 -145.375 280.4375 C-145.42169853 256.0117071 -145.45697832 231.58592088 -145.47862434 207.16009235 C-145.48894162 195.81903403 -145.50301061 184.47800342 -145.52587891 173.13696289 C-145.54579893 163.25335442 -145.55871315 153.36976603 -145.56317699 143.48613805 C-145.56578672 138.25172802 -145.57193014 133.01737542 -145.58646011 127.78298378 C-145.60002207 122.85747102 -145.60422543 117.93203943 -145.60121536 113.00650978 C-145.60176615 111.19770365 -145.60575183 109.38889483 -145.61341095 107.58010483 C-145.62335048 105.11196306 -145.62097251 102.64412838 -145.61550903 100.17597961 C-145.62133472 99.45904554 -145.6271604 98.74211147 -145.63316262 98.00345212 C-145.60944369 94.04344293 -145.21603638 90.96550287 -143.375 87.4375 C-141.16796875 85.26953125 -141.16796875 85.26953125 -138.5625 83.25 C-137.71042969 82.57582031 -136.85835938 81.90164062 -135.98046875 81.20703125 C-133.375 79.4375 -133.375 79.4375 -130.61328125 78.38671875 C-129.87464844 78.07347656 -129.13601563 77.76023437 -128.375 77.4375 C-127.88 75.9525 -127.88 75.9525 -127.375 74.4375 C-125.38480253 73.41813057 -123.3822458 72.42287521 -121.375 71.4375 C-119.29156572 69.96037765 -117.27693171 68.41009824 -115.25390625 66.8515625 C-113.05450961 65.19629933 -110.7560163 63.81598312 -108.375 62.4375 C-106.99729407 61.51902938 -105.61994468 60.60000824 -104.24609375 59.67578125 C-94.10346557 52.9634365 -94.10346557 52.9634365 -89.03515625 50.12890625 C-85.2254652 47.70659168 -81.84163769 44.82210074 -78.375 41.9375 C-74.17453814 38.44228174 -70.12914669 35.16414296 -65.375 32.4375 C-64.385 31.4475 -64.385 31.4475 -63.375 30.4375 C-62.6221875 30.15777344 -61.869375 29.87804687 -61.09375 29.58984375 C-57.81146074 28.19864356 -55.58046387 26.31408356 -52.875 24 C-49.49926674 21.12209257 -46.22220916 18.64534855 -42.375 16.4375 C-41.75625 15.963125 -41.1375 15.48875 -40.5 15 C-38.375 13.4375 -38.375 13.4375 -35.0625 11.6875 C-30.78854017 9.31205881 -27.7350129 5.933271 -24.375 2.4375 C-17.98083063 -3.54414232 -7.25362259 -4.78050698 0 0 Z " fill="#95B84A" transform="translate(409.375,74.5625)"/>
<path d="M0 0 C1.32 0 2.64 0 4 0 C4 0.66 4 1.32 4 2 C4.99 2 5.98 2 7 2 C7 2.66 7 3.32 7 4 C7.86625 4.0825 8.7325 4.165 9.625 4.25 C13.51107778 5.11357284 15.88500021 6.55250016 19 9 C19 9.66 19 10.32 19 11 C19.680625 11.061875 20.36125 11.12375 21.0625 11.1875 C24.44752029 12.12378221 26.45174061 13.6291952 29.21875 15.72265625 C31.66131837 17.47423488 34.27895382 18.73902738 37 20 C37 20.66 37 21.32 37 22 C37.99 22 38.98 22 40 22 C40 22.66 40 23.32 40 24 C40.53625 24.2475 41.0725 24.495 41.625 24.75 C46.4364901 27.28236321 50.9238621 30.40340774 55 34 C55 34.66 55 35.32 55 36 C55.7425 36.0825 56.485 36.165 57.25 36.25 C60.56035658 37.15282452 61.64334649 38.56970107 64 41 C64.77472656 41.29648438 65.54945313 41.59296875 66.34765625 41.8984375 C73.10742002 44.70587989 80.0285346 51.84812222 84 58 C84 58.99 84 59.98 84 61 C83.34 61 82.68 61 82 61 C82 61.66 82 62.32 82 63 C78.53846154 66 78.53846154 66 76 66 C75.773125 66.56203125 75.54625 67.1240625 75.3125 67.703125 C73.63070365 70.64626861 71.5289089 72.50044732 69 74.75 C68.113125 75.54921875 67.22625 76.3484375 66.3125 77.171875 C64 79 64 79 62 79 C61.8453125 79.8971875 61.8453125 79.8971875 61.6875 80.8125 C60.90175967 83.31258286 60.03081147 84.37535082 58 86 C57.34 86 56.68 86 56 86 C55.74476563 86.58910156 55.48953125 87.17820312 55.2265625 87.78515625 C51.96700302 93.67104869 45.46413682 97.57441206 39.76171875 100.859375 C37.91376271 101.93192264 37.91376271 101.93192264 36.58203125 103.703125 C35 105 35 105 32.58984375 104.875 C29.78723878 103.92811687 27.92729331 102.77052116 25.5625 101 C20.82713601 97.54964483 15.97050972 94.37867322 10.99829102 91.28515625 C2.29612367 85.79089074 2.29612367 85.79089074 0 83 C-0.5778426 79.9949521 -0.76629988 77.80573918 -0.68115234 74.81323242 C-0.6820285 74.00295593 -0.68290466 73.19267944 -0.68380737 72.35784912 C-0.67963932 69.6893956 -0.63302822 67.02348097 -0.5859375 64.35546875 C-0.57474248 62.50174838 -0.56620374 60.64801023 -0.56021118 58.79426575 C-0.53733677 53.9226859 -0.47842574 49.05218481 -0.4119873 44.18103027 C-0.35053468 39.20742384 -0.32318982 34.23364254 -0.29296875 29.25976562 C-0.22868097 19.50603726 -0.12631841 9.75310845 0 0 Z " fill="#94B74A" transform="translate(312,200)"/>

</svg>
